<?xml version="1.0" encoding="UTF-8" standalone="no"?>
<!-- Created with Inkscape (http://www.inkscape.org/) -->

<svg
   xmlns:dc="http://purl.org/dc/elements/1.1/"
   xmlns:cc="http://creativecommons.org/ns#"
   xmlns:rdf="http://www.w3.org/1999/02/22-rdf-syntax-ns#"
   xmlns:svg="http://www.w3.org/2000/svg"
   xmlns="http://www.w3.org/2000/svg"
   xmlns:sodipodi="http://sodipodi.sourceforge.net/DTD/sodipodi-0.dtd"
   xmlns:inkscape="http://www.inkscape.org/namespaces/inkscape"
   width="837.65411"
   height="339.6597"
   id="svg2"
   version="1.1"
   inkscape:version="0.48.5 r10040">
  <defs
     id="defs4" />
  <sodipodi:namedview
     id="base"
     pagecolor="#ffffff"
     bordercolor="#666666"
     borderopacity="1.0"
     inkscape:pageopacity="0.0"
     inkscape:pageshadow="2"
     inkscape:zoom="1.08"
     inkscape:cx="266.93202"
     inkscape:cy="29.829858"
     inkscape:document-units="px"
     inkscape:current-layer="layer1"
     showgrid="false"
     fit-margin-top="0"
     fit-margin-left="0"
     fit-margin-right="0"
     fit-margin-bottom="0"
     inkscape:window-width="1600"
     inkscape:window-height="838"
     inkscape:window-x="-8"
     inkscape:window-y="-8"
     inkscape:window-maximized="1" />
  <metadata
     id="metadata7">
    <rdf:RDF>
      <cc:Work
         rdf:about="">
        <dc:format>image/svg+xml</dc:format>
        <dc:type
           rdf:resource="http://purl.org/dc/dcmitype/StillImage" />
        <dc:title></dc:title>
      </cc:Work>
    </rdf:RDF>
  </metadata>
  <g
     inkscape:label="Layer 1"
     inkscape:groupmode="layer"
     id="layer1"
     transform="translate(-108.06798,-222.53233)">
    <path
       inkscape:connector-curvature="0"
       style="fill:#ffffff;fill-opacity:1;fill-rule:evenodd;stroke:none"
       d="m 173.51721,288.99659 0,198.33066 232.55793,0 0,-198.33066 -232.55793,0 z"
       id="path2991" />
    <path
       inkscape:connector-curvature="0"
       style="fill:none;stroke:#000000;stroke-width:1.25656307px;stroke-linecap:butt;stroke-linejoin:miter;stroke-miterlimit:4;stroke-opacity:1;stroke-dasharray:none"
       d="m 173.51721,288.99659 232.55793,0 0,198.33066 -232.55793,0 z"
       id="path2993" />
    <text
       xml:space="preserve"
       x="209.76851"
       y="548.47992"
       style="font-size:22.5056076px;font-style:normal;font-weight:normal;text-align:start;text-anchor:start;fill:#000000;font-family:Verdana"
       id="text2995">Rating Matrix</text>
    <text
       xml:space="preserve"
       x="135.405"
       y="319.09857"
       style="font-size:22.5056076px;font-style:normal;font-weight:normal;text-align:start;text-anchor:start;fill:#000000;font-family:Verdana"
       id="text2997">A</text>
    <text
       xml:space="preserve"
       x="135.405"
       y="368.39658"
       style="font-size:22.5056076px;font-style:normal;font-weight:normal;text-align:start;text-anchor:start;fill:#000000;font-family:Verdana"
       id="text2999">B</text>
    <text
       xml:space="preserve"
       x="135.405"
       y="417.69458"
       style="font-size:22.5056076px;font-style:normal;font-weight:normal;text-align:start;text-anchor:start;fill:#000000;font-family:Verdana"
       id="text3001">C</text>
    <text
       xml:space="preserve"
       x="135.405"
       y="466.99261"
       style="font-size:22.5056076px;font-style:normal;font-weight:normal;text-align:start;text-anchor:start;fill:#000000;font-family:Verdana"
       id="text3003">D</text>
    <path
       inkscape:connector-curvature="0"
       style="fill:#000000;fill-opacity:1;fill-rule:nonzero;stroke:#000000;stroke-width:0.01875467px;stroke-linecap:butt;stroke-linejoin:round;stroke-opacity:1;stroke-dasharray:none"
       d="m 173.51721,387.92748 1.87547,0 0,0.61891 -1.87547,0 0,-0.61891 z m 2.49437,0 1.87547,0 0,0.61891 -1.87547,0 0,-0.61891 z m 2.49437,0 1.87547,0 0,0.61891 -1.87547,0 0,-0.61891 z m 2.51313,0 1.87546,0 0,0.61891 -1.87546,0 0,-0.61891 z m 2.49437,0 1.87547,0 0,0.61891 -1.87547,0 0,-0.61891 z m 2.49437,0 1.87547,0 0,0.61891 -1.87547,0 0,-0.61891 z m 2.51313,0 1.87546,0 0,0.61891 -1.87546,0 0,-0.61891 z m 2.49437,0 1.87546,0 0,0.61891 -1.87546,0 0,-0.61891 z m 2.49437,0 1.87547,0 0,0.61891 -1.87547,0 0,-0.61891 z m 2.51313,0 1.87546,0 0,0.61891 -1.87546,0 0,-0.61891 z m 2.49437,0 1.87546,0 0,0.61891 -1.87546,0 0,-0.61891 z m 2.49437,0 1.87547,0 0,0.61891 -1.87547,0 0,-0.61891 z m 2.51312,0 1.87547,0 0,0.61891 -1.87547,0 0,-0.61891 z m 2.49438,0 1.87546,0 0,0.61891 -1.87546,0 0,-0.61891 z m 2.49437,0 1.87546,0 0,0.61891 -1.87546,0 0,-0.61891 z m 2.51312,0 1.87547,0 0,0.61891 -1.87547,0 0,-0.61891 z m 2.49437,0 1.87547,0 0,0.61891 -1.87547,0 0,-0.61891 z m 2.49438,0 1.87546,0 0,0.61891 -1.87546,0 0,-0.61891 z m 2.51312,0 1.87547,0 0,0.61891 -1.87547,0 0,-0.61891 z m 2.49437,0 1.87547,0 0,0.61891 -1.87547,0 0,-0.61891 z m 2.49437,0 1.87547,0 0,0.61891 -1.87547,0 0,-0.61891 z m 2.51313,0 1.87547,0 0,0.61891 -1.87547,0 0,-0.61891 z m 2.49437,0 1.87547,0 0,0.61891 -1.87547,0 0,-0.61891 z m 2.49437,0 1.87547,0 0,0.61891 -1.87547,0 0,-0.61891 z m 2.51313,0 1.87547,0 0,0.61891 -1.87547,0 0,-0.61891 z m 2.49437,0 1.87547,0 0,0.61891 -1.87547,0 0,-0.61891 z m 2.49437,0 1.87547,0 0,0.61891 -1.87547,0 0,-0.61891 z m 2.51313,0 1.87547,0 0,0.61891 -1.87547,0 0,-0.61891 z m 2.49437,0 1.87547,0 0,0.61891 -1.87547,0 0,-0.61891 z m 2.49437,0 1.87547,0 0,0.61891 -1.87547,0 0,-0.61891 z m 2.51313,0 1.87546,0 0,0.61891 -1.87546,0 0,-0.61891 z m 2.49437,0 1.87547,0 0,0.61891 -1.87547,0 0,-0.61891 z m 2.49437,0 1.87547,0 0,0.61891 -1.87547,0 0,-0.61891 z m 2.51313,0 1.87546,0 0,0.61891 -1.87546,0 0,-0.61891 z m 2.49437,0 1.87546,0 0,0.61891 -1.87546,0 0,-0.61891 z m 2.49437,0 1.87547,0 0,0.61891 -1.87547,0 0,-0.61891 z m 2.51313,0 1.87546,0 0,0.61891 -1.87546,0 0,-0.61891 z m 2.49437,0 1.87546,0 0,0.61891 -1.87546,0 0,-0.61891 z m 2.49437,0 1.87547,0 0,0.61891 -1.87547,0 0,-0.61891 z m 2.51312,0 1.87547,0 0,0.61891 -1.87547,0 0,-0.61891 z m 2.49438,0 1.87546,0 0,0.61891 -1.87546,0 0,-0.61891 z m 2.49437,0 1.87546,0 0,0.61891 -1.87546,0 0,-0.61891 z m 2.51312,0 1.87547,0 0,0.61891 -1.87547,0 0,-0.61891 z m 2.49437,0 1.87547,0 0,0.61891 -1.87547,0 0,-0.61891 z m 2.49438,0 1.87546,0 0,0.61891 -1.87546,0 0,-0.61891 z m 2.51312,0 1.87547,0 0,0.61891 -1.87547,0 0,-0.61891 z m 2.49437,0 1.87547,0 0,0.61891 -1.87547,0 0,-0.61891 z m 2.49437,0 1.87547,0 0,0.61891 -1.87547,0 0,-0.61891 z m 2.51313,0 1.87547,0 0,0.61891 -1.87547,0 0,-0.61891 z m 2.49437,0 1.87547,0 0,0.61891 -1.87547,0 0,-0.61891 z m 2.49437,0 1.87547,0 0,0.61891 -1.87547,0 0,-0.61891 z m 2.51313,0 1.87547,0 0,0.61891 -1.87547,0 0,-0.61891 z m 2.49437,0 1.87547,0 0,0.61891 -1.87547,0 0,-0.61891 z m 2.49437,0 1.87547,0 0,0.61891 -1.87547,0 0,-0.61891 z m 2.51313,0 1.87547,0 0,0.61891 -1.87547,0 0,-0.61891 z m 2.49437,0 1.87547,0 0,0.61891 -1.87547,0 0,-0.61891 z m 2.49437,0 1.87547,0 0,0.61891 -1.87547,0 0,-0.61891 z m 2.51313,0 1.87546,0 0,0.61891 -1.87546,0 0,-0.61891 z m 2.49437,0 1.87547,0 0,0.61891 -1.87547,0 0,-0.61891 z m 2.49437,0 1.87547,0 0,0.61891 -1.87547,0 0,-0.61891 z m 2.51313,0 1.87546,0 0,0.61891 -1.87546,0 0,-0.61891 z m 2.49437,0 1.87547,0 0,0.61891 -1.87547,0 0,-0.61891 z m 2.49437,0 1.87547,0 0,0.61891 -1.87547,0 0,-0.61891 z m 2.51313,0 1.87546,0 0,0.61891 -1.87546,0 0,-0.61891 z m 2.49437,0 1.87546,0 0,0.61891 -1.87546,0 0,-0.61891 z m 2.49437,0 1.87547,0 0,0.61891 -1.87547,0 0,-0.61891 z m 2.51312,0 1.87547,0 0,0.61891 -1.87547,0 0,-0.61891 z m 2.49438,0 1.87546,0 0,0.61891 -1.87546,0 0,-0.61891 z m 2.49437,0 1.87546,0 0,0.61891 -1.87546,0 0,-0.61891 z m 2.51312,0 1.87547,0 0,0.61891 -1.87547,0 0,-0.61891 z m 2.49437,0 1.87547,0 0,0.61891 -1.87547,0 0,-0.61891 z m 2.49438,0 1.87546,0 0,0.61891 -1.87546,0 0,-0.61891 z m 2.51312,0 1.87547,0 0,0.61891 -1.87547,0 0,-0.61891 z m 2.49437,0 1.87547,0 0,0.61891 -1.87547,0 0,-0.61891 z m 2.49437,0 1.87547,0 0,0.61891 -1.87547,0 0,-0.61891 z m 2.51313,0 1.87547,0 0,0.61891 -1.87547,0 0,-0.61891 z m 2.49437,0 1.87547,0 0,0.61891 -1.87547,0 0,-0.61891 z m 2.49437,0 1.87547,0 0,0.61891 -1.87547,0 0,-0.61891 z m 2.51313,0 1.87547,0 0,0.61891 -1.87547,0 0,-0.61891 z m 2.49437,0 1.87547,0 0,0.61891 -1.87547,0 0,-0.61891 z m 2.49437,0 1.87547,0 0,0.61891 -1.87547,0 0,-0.61891 z m 2.51313,0 1.87547,0 0,0.61891 -1.87547,0 0,-0.61891 z m 2.49437,0 1.87547,0 0,0.61891 -1.87547,0 0,-0.61891 z m 2.49437,0 1.87547,0 0,0.61891 -1.87547,0 0,-0.61891 z m 2.51313,0 1.87546,0 0,0.61891 -1.87546,0 0,-0.61891 z m 2.49437,0 1.87547,0 0,0.61891 -1.87547,0 0,-0.61891 z m 2.49437,0 1.87547,0 0,0.61891 -1.87547,0 0,-0.61891 z m 2.51313,0 1.87546,0 0,0.61891 -1.87546,0 0,-0.61891 z m 2.49437,0 1.87547,0 0,0.61891 -1.87547,0 0,-0.61891 z m 2.49437,0 1.87547,0 0,0.61891 -1.87547,0 0,-0.61891 z m 2.51313,0 1.87546,0 0,0.61891 -1.87546,0 0,-0.61891 z m 2.49437,0 1.87546,0 0,0.61891 -1.87546,0 0,-0.61891 z m 2.49437,0 1.87547,0 0,0.61891 -1.87547,0 0,-0.61891 z"
       id="path3005" />
    <path
       inkscape:connector-curvature="0"
       style="fill:#000000;fill-opacity:1;fill-rule:nonzero;stroke:#000000;stroke-width:0.01875467px;stroke-linecap:butt;stroke-linejoin:round;stroke-opacity:1;stroke-dasharray:none"
       d="m 173.51721,341.19084 1.87547,0 0,0.61891 -1.87547,0 0,-0.61891 z m 2.49437,0 1.87547,0 0,0.61891 -1.87547,0 0,-0.61891 z m 2.49437,0 1.87547,0 0,0.61891 -1.87547,0 0,-0.61891 z m 2.51313,0 1.87546,0 0,0.61891 -1.87546,0 0,-0.61891 z m 2.49437,0 1.87547,0 0,0.61891 -1.87547,0 0,-0.61891 z m 2.49437,0 1.87547,0 0,0.61891 -1.87547,0 0,-0.61891 z m 2.51313,0 1.87546,0 0,0.61891 -1.87546,0 0,-0.61891 z m 2.49437,0 1.87546,0 0,0.61891 -1.87546,0 0,-0.61891 z m 2.49437,0 1.87547,0 0,0.61891 -1.87547,0 0,-0.61891 z m 2.51313,0 1.87546,0 0,0.61891 -1.87546,0 0,-0.61891 z m 2.49437,0 1.87546,0 0,0.61891 -1.87546,0 0,-0.61891 z m 2.49437,0 1.87547,0 0,0.61891 -1.87547,0 0,-0.61891 z m 2.51312,0 1.87547,0 0,0.61891 -1.87547,0 0,-0.61891 z m 2.49438,0 1.87546,0 0,0.61891 -1.87546,0 0,-0.61891 z m 2.49437,0 1.87546,0 0,0.61891 -1.87546,0 0,-0.61891 z m 2.51312,0 1.87547,0 0,0.61891 -1.87547,0 0,-0.61891 z m 2.49437,0 1.87547,0 0,0.61891 -1.87547,0 0,-0.61891 z m 2.49438,0 1.87546,0 0,0.61891 -1.87546,0 0,-0.61891 z m 2.51312,0 1.87547,0 0,0.61891 -1.87547,0 0,-0.61891 z m 2.49437,0 1.87547,0 0,0.61891 -1.87547,0 0,-0.61891 z m 2.49437,0 1.87547,0 0,0.61891 -1.87547,0 0,-0.61891 z m 2.51313,0 1.87547,0 0,0.61891 -1.87547,0 0,-0.61891 z m 2.49437,0 1.87547,0 0,0.61891 -1.87547,0 0,-0.61891 z m 2.49437,0 1.87547,0 0,0.61891 -1.87547,0 0,-0.61891 z m 2.51313,0 1.87547,0 0,0.61891 -1.87547,0 0,-0.61891 z m 2.49437,0 1.87547,0 0,0.61891 -1.87547,0 0,-0.61891 z m 2.49437,0 1.87547,0 0,0.61891 -1.87547,0 0,-0.61891 z m 2.51313,0 1.87547,0 0,0.61891 -1.87547,0 0,-0.61891 z m 2.49437,0 1.87547,0 0,0.61891 -1.87547,0 0,-0.61891 z m 2.49437,0 1.87547,0 0,0.61891 -1.87547,0 0,-0.61891 z m 2.51313,0 1.87546,0 0,0.61891 -1.87546,0 0,-0.61891 z m 2.49437,0 1.87547,0 0,0.61891 -1.87547,0 0,-0.61891 z m 2.49437,0 1.87547,0 0,0.61891 -1.87547,0 0,-0.61891 z m 2.51313,0 1.87546,0 0,0.61891 -1.87546,0 0,-0.61891 z m 2.49437,0 1.87546,0 0,0.61891 -1.87546,0 0,-0.61891 z m 2.49437,0 1.87547,0 0,0.61891 -1.87547,0 0,-0.61891 z m 2.51313,0 1.87546,0 0,0.61891 -1.87546,0 0,-0.61891 z m 2.49437,0 1.87546,0 0,0.61891 -1.87546,0 0,-0.61891 z m 2.49437,0 1.87547,0 0,0.61891 -1.87547,0 0,-0.61891 z m 2.51312,0 1.87547,0 0,0.61891 -1.87547,0 0,-0.61891 z m 2.49438,0 1.87546,0 0,0.61891 -1.87546,0 0,-0.61891 z m 2.49437,0 1.87546,0 0,0.61891 -1.87546,0 0,-0.61891 z m 2.51312,0 1.87547,0 0,0.61891 -1.87547,0 0,-0.61891 z m 2.49437,0 1.87547,0 0,0.61891 -1.87547,0 0,-0.61891 z m 2.49438,0 1.87546,0 0,0.61891 -1.87546,0 0,-0.61891 z m 2.51312,0 1.87547,0 0,0.61891 -1.87547,0 0,-0.61891 z m 2.49437,0 1.87547,0 0,0.61891 -1.87547,0 0,-0.61891 z m 2.49437,0 1.87547,0 0,0.61891 -1.87547,0 0,-0.61891 z m 2.51313,0 1.87547,0 0,0.61891 -1.87547,0 0,-0.61891 z m 2.49437,0 1.87547,0 0,0.61891 -1.87547,0 0,-0.61891 z m 2.49437,0 1.87547,0 0,0.61891 -1.87547,0 0,-0.61891 z m 2.51313,0 1.87547,0 0,0.61891 -1.87547,0 0,-0.61891 z m 2.49437,0 1.87547,0 0,0.61891 -1.87547,0 0,-0.61891 z m 2.49437,0 1.87547,0 0,0.61891 -1.87547,0 0,-0.61891 z m 2.51313,0 1.87547,0 0,0.61891 -1.87547,0 0,-0.61891 z m 2.49437,0 1.87547,0 0,0.61891 -1.87547,0 0,-0.61891 z m 2.49437,0 1.87547,0 0,0.61891 -1.87547,0 0,-0.61891 z m 2.51313,0 1.87546,0 0,0.61891 -1.87546,0 0,-0.61891 z m 2.49437,0 1.87547,0 0,0.61891 -1.87547,0 0,-0.61891 z m 2.49437,0 1.87547,0 0,0.61891 -1.87547,0 0,-0.61891 z m 2.51313,0 1.87546,0 0,0.61891 -1.87546,0 0,-0.61891 z m 2.49437,0 1.87547,0 0,0.61891 -1.87547,0 0,-0.61891 z m 2.49437,0 1.87547,0 0,0.61891 -1.87547,0 0,-0.61891 z m 2.51313,0 1.87546,0 0,0.61891 -1.87546,0 0,-0.61891 z m 2.49437,0 1.87546,0 0,0.61891 -1.87546,0 0,-0.61891 z m 2.49437,0 1.87547,0 0,0.61891 -1.87547,0 0,-0.61891 z m 2.51312,0 1.87547,0 0,0.61891 -1.87547,0 0,-0.61891 z m 2.49438,0 1.87546,0 0,0.61891 -1.87546,0 0,-0.61891 z m 2.49437,0 1.87546,0 0,0.61891 -1.87546,0 0,-0.61891 z m 2.51312,0 1.87547,0 0,0.61891 -1.87547,0 0,-0.61891 z m 2.49437,0 1.87547,0 0,0.61891 -1.87547,0 0,-0.61891 z m 2.49438,0 1.87546,0 0,0.61891 -1.87546,0 0,-0.61891 z m 2.51312,0 1.87547,0 0,0.61891 -1.87547,0 0,-0.61891 z m 2.49437,0 1.87547,0 0,0.61891 -1.87547,0 0,-0.61891 z m 2.49437,0 1.87547,0 0,0.61891 -1.87547,0 0,-0.61891 z m 2.51313,0 1.87547,0 0,0.61891 -1.87547,0 0,-0.61891 z m 2.49437,0 1.87547,0 0,0.61891 -1.87547,0 0,-0.61891 z m 2.49437,0 1.87547,0 0,0.61891 -1.87547,0 0,-0.61891 z m 2.51313,0 1.87547,0 0,0.61891 -1.87547,0 0,-0.61891 z m 2.49437,0 1.87547,0 0,0.61891 -1.87547,0 0,-0.61891 z m 2.49437,0 1.87547,0 0,0.61891 -1.87547,0 0,-0.61891 z m 2.51313,0 1.87547,0 0,0.61891 -1.87547,0 0,-0.61891 z m 2.49437,0 1.87547,0 0,0.61891 -1.87547,0 0,-0.61891 z m 2.49437,0 1.87547,0 0,0.61891 -1.87547,0 0,-0.61891 z m 2.51313,0 1.87546,0 0,0.61891 -1.87546,0 0,-0.61891 z m 2.49437,0 1.87547,0 0,0.61891 -1.87547,0 0,-0.61891 z m 2.49437,0 1.87547,0 0,0.61891 -1.87547,0 0,-0.61891 z m 2.51313,0 1.87546,0 0,0.61891 -1.87546,0 0,-0.61891 z m 2.49437,0 1.87547,0 0,0.61891 -1.87547,0 0,-0.61891 z m 2.49437,0 1.87547,0 0,0.61891 -1.87547,0 0,-0.61891 z m 2.51313,0 1.87546,0 0,0.61891 -1.87546,0 0,-0.61891 z m 2.49437,0 1.87546,0 0,0.61891 -1.87546,0 0,-0.61891 z m 2.49437,0 1.87547,0 0,0.61891 -1.87547,0 0,-0.61891 z"
       id="path3007" />
    <path
       inkscape:connector-curvature="0"
       style="fill:#000000;fill-opacity:1;fill-rule:nonzero;stroke:#000000;stroke-width:0.01875467px;stroke-linecap:butt;stroke-linejoin:round;stroke-opacity:1;stroke-dasharray:none"
       d="m 173.51721,439.80291 1.87547,0 0,0.63766 -1.87547,0 0,-0.63766 z m 2.49437,0 1.87547,0 0,0.63766 -1.87547,0 0,-0.63766 z m 2.49437,0 1.87547,0 0,0.63766 -1.87547,0 0,-0.63766 z m 2.51313,0 1.87546,0 0,0.63766 -1.87546,0 0,-0.63766 z m 2.49437,0 1.87547,0 0,0.63766 -1.87547,0 0,-0.63766 z m 2.49437,0 1.87547,0 0,0.63766 -1.87547,0 0,-0.63766 z m 2.51313,0 1.87546,0 0,0.63766 -1.87546,0 0,-0.63766 z m 2.49437,0 1.87546,0 0,0.63766 -1.87546,0 0,-0.63766 z m 2.49437,0 1.87547,0 0,0.63766 -1.87547,0 0,-0.63766 z m 2.51313,0 1.87546,0 0,0.63766 -1.87546,0 0,-0.63766 z m 2.49437,0 1.87546,0 0,0.63766 -1.87546,0 0,-0.63766 z m 2.49437,0 1.87547,0 0,0.63766 -1.87547,0 0,-0.63766 z m 2.51312,0 1.87547,0 0,0.63766 -1.87547,0 0,-0.63766 z m 2.49438,0 1.87546,0 0,0.63766 -1.87546,0 0,-0.63766 z m 2.49437,0 1.87546,0 0,0.63766 -1.87546,0 0,-0.63766 z m 2.51312,0 1.87547,0 0,0.63766 -1.87547,0 0,-0.63766 z m 2.49437,0 1.87547,0 0,0.63766 -1.87547,0 0,-0.63766 z m 2.49438,0 1.87546,0 0,0.63766 -1.87546,0 0,-0.63766 z m 2.51312,0 1.87547,0 0,0.63766 -1.87547,0 0,-0.63766 z m 2.49437,0 1.87547,0 0,0.63766 -1.87547,0 0,-0.63766 z m 2.49437,0 1.87547,0 0,0.63766 -1.87547,0 0,-0.63766 z m 2.51313,0 1.87547,0 0,0.63766 -1.87547,0 0,-0.63766 z m 2.49437,0 1.87547,0 0,0.63766 -1.87547,0 0,-0.63766 z m 2.49437,0 1.87547,0 0,0.63766 -1.87547,0 0,-0.63766 z m 2.51313,0 1.87547,0 0,0.63766 -1.87547,0 0,-0.63766 z m 2.49437,0 1.87547,0 0,0.63766 -1.87547,0 0,-0.63766 z m 2.49437,0 1.87547,0 0,0.63766 -1.87547,0 0,-0.63766 z m 2.51313,0 1.87547,0 0,0.63766 -1.87547,0 0,-0.63766 z m 2.49437,0 1.87547,0 0,0.63766 -1.87547,0 0,-0.63766 z m 2.49437,0 1.87547,0 0,0.63766 -1.87547,0 0,-0.63766 z m 2.51313,0 1.87546,0 0,0.63766 -1.87546,0 0,-0.63766 z m 2.49437,0 1.87547,0 0,0.63766 -1.87547,0 0,-0.63766 z m 2.49437,0 1.87547,0 0,0.63766 -1.87547,0 0,-0.63766 z m 2.51313,0 1.87546,0 0,0.63766 -1.87546,0 0,-0.63766 z m 2.49437,0 1.87546,0 0,0.63766 -1.87546,0 0,-0.63766 z m 2.49437,0 1.87547,0 0,0.63766 -1.87547,0 0,-0.63766 z m 2.51313,0 1.87546,0 0,0.63766 -1.87546,0 0,-0.63766 z m 2.49437,0 1.87546,0 0,0.63766 -1.87546,0 0,-0.63766 z m 2.49437,0 1.87547,0 0,0.63766 -1.87547,0 0,-0.63766 z m 2.51312,0 1.87547,0 0,0.63766 -1.87547,0 0,-0.63766 z m 2.49438,0 1.87546,0 0,0.63766 -1.87546,0 0,-0.63766 z m 2.49437,0 1.87546,0 0,0.63766 -1.87546,0 0,-0.63766 z m 2.51312,0 1.87547,0 0,0.63766 -1.87547,0 0,-0.63766 z m 2.49437,0 1.87547,0 0,0.63766 -1.87547,0 0,-0.63766 z m 2.49438,0 1.87546,0 0,0.63766 -1.87546,0 0,-0.63766 z m 2.51312,0 1.87547,0 0,0.63766 -1.87547,0 0,-0.63766 z m 2.49437,0 1.87547,0 0,0.63766 -1.87547,0 0,-0.63766 z m 2.49437,0 1.87547,0 0,0.63766 -1.87547,0 0,-0.63766 z m 2.51313,0 1.87547,0 0,0.63766 -1.87547,0 0,-0.63766 z m 2.49437,0 1.87547,0 0,0.63766 -1.87547,0 0,-0.63766 z m 2.49437,0 1.87547,0 0,0.63766 -1.87547,0 0,-0.63766 z m 2.51313,0 1.87547,0 0,0.63766 -1.87547,0 0,-0.63766 z m 2.49437,0 1.87547,0 0,0.63766 -1.87547,0 0,-0.63766 z m 2.49437,0 1.87547,0 0,0.63766 -1.87547,0 0,-0.63766 z m 2.51313,0 1.87547,0 0,0.63766 -1.87547,0 0,-0.63766 z m 2.49437,0 1.87547,0 0,0.63766 -1.87547,0 0,-0.63766 z m 2.49437,0 1.87547,0 0,0.63766 -1.87547,0 0,-0.63766 z m 2.51313,0 1.87546,0 0,0.63766 -1.87546,0 0,-0.63766 z m 2.49437,0 1.87547,0 0,0.63766 -1.87547,0 0,-0.63766 z m 2.49437,0 1.87547,0 0,0.63766 -1.87547,0 0,-0.63766 z m 2.51313,0 1.87546,0 0,0.63766 -1.87546,0 0,-0.63766 z m 2.49437,0 1.87547,0 0,0.63766 -1.87547,0 0,-0.63766 z m 2.49437,0 1.87547,0 0,0.63766 -1.87547,0 0,-0.63766 z m 2.51313,0 1.87546,0 0,0.63766 -1.87546,0 0,-0.63766 z m 2.49437,0 1.87546,0 0,0.63766 -1.87546,0 0,-0.63766 z m 2.49437,0 1.87547,0 0,0.63766 -1.87547,0 0,-0.63766 z m 2.51312,0 1.87547,0 0,0.63766 -1.87547,0 0,-0.63766 z m 2.49438,0 1.87546,0 0,0.63766 -1.87546,0 0,-0.63766 z m 2.49437,0 1.87546,0 0,0.63766 -1.87546,0 0,-0.63766 z m 2.51312,0 1.87547,0 0,0.63766 -1.87547,0 0,-0.63766 z m 2.49437,0 1.87547,0 0,0.63766 -1.87547,0 0,-0.63766 z m 2.49438,0 1.87546,0 0,0.63766 -1.87546,0 0,-0.63766 z m 2.51312,0 1.87547,0 0,0.63766 -1.87547,0 0,-0.63766 z m 2.49437,0 1.87547,0 0,0.63766 -1.87547,0 0,-0.63766 z m 2.49437,0 1.87547,0 0,0.63766 -1.87547,0 0,-0.63766 z m 2.51313,0 1.87547,0 0,0.63766 -1.87547,0 0,-0.63766 z m 2.49437,0 1.87547,0 0,0.63766 -1.87547,0 0,-0.63766 z m 2.49437,0 1.87547,0 0,0.63766 -1.87547,0 0,-0.63766 z m 2.51313,0 1.87547,0 0,0.63766 -1.87547,0 0,-0.63766 z m 2.49437,0 1.87547,0 0,0.63766 -1.87547,0 0,-0.63766 z m 2.49437,0 1.87547,0 0,0.63766 -1.87547,0 0,-0.63766 z m 2.51313,0 1.87547,0 0,0.63766 -1.87547,0 0,-0.63766 z m 2.49437,0 1.87547,0 0,0.63766 -1.87547,0 0,-0.63766 z m 2.49437,0 1.87547,0 0,0.63766 -1.87547,0 0,-0.63766 z m 2.51313,0 1.87546,0 0,0.63766 -1.87546,0 0,-0.63766 z m 2.49437,0 1.87547,0 0,0.63766 -1.87547,0 0,-0.63766 z m 2.49437,0 1.87547,0 0,0.63766 -1.87547,0 0,-0.63766 z m 2.51313,0 1.87546,0 0,0.63766 -1.87546,0 0,-0.63766 z m 2.49437,0 1.87547,0 0,0.63766 -1.87547,0 0,-0.63766 z m 2.49437,0 1.87547,0 0,0.63766 -1.87547,0 0,-0.63766 z m 2.51313,0 1.87546,0 0,0.63766 -1.87546,0 0,-0.63766 z m 2.49437,0 1.87546,0 0,0.63766 -1.87546,0 0,-0.63766 z m 2.49437,0 1.87547,0 0,0.63766 -1.87547,0 0,-0.63766 z"
       id="path3009" />
    <path
       inkscape:connector-curvature="0"
       style="fill:#000000;fill-opacity:1;fill-rule:nonzero;stroke:#000000;stroke-width:0.01875467px;stroke-linecap:butt;stroke-linejoin:round;stroke-opacity:1;stroke-dasharray:none"
       d="m 290.09625,288.99659 0,1.87547 -0.6189,0 0,-1.87547 0.6189,0 z m 0,2.49437 0,1.87547 -0.6189,0 0,-1.87547 0.6189,0 z m 0,2.49437 0,1.87547 -0.6189,0 0,-1.87547 0.6189,0 z m 0,2.51313 0,1.87546 -0.6189,0 0,-1.87546 0.6189,0 z m 0,2.49437 0,1.87547 -0.6189,0 0,-1.87547 0.6189,0 z m 0,2.49437 0,1.87547 -0.6189,0 0,-1.87547 0.6189,0 z m 0,2.51313 0,1.87546 -0.6189,0 0,-1.87546 0.6189,0 z m 0,2.49437 0,1.87547 -0.6189,0 0,-1.87547 0.6189,0 z m 0,2.49437 0,1.87547 -0.6189,0 0,-1.87547 0.6189,0 z m 0,2.51313 0,1.87546 -0.6189,0 0,-1.87546 0.6189,0 z m 0,2.49437 0,1.87546 -0.6189,0 0,-1.87546 0.6189,0 z m 0,2.49437 0,1.87547 -0.6189,0 0,-1.87547 0.6189,0 z m 0,2.51312 0,1.87547 -0.6189,0 0,-1.87547 0.6189,0 z m 0,2.49438 0,1.87546 -0.6189,0 0,-1.87546 0.6189,0 z m 0,2.49437 0,1.87546 -0.6189,0 0,-1.87546 0.6189,0 z m 0,2.51312 0,1.87547 -0.6189,0 0,-1.87547 0.6189,0 z m 0,2.49437 0,1.87547 -0.6189,0 0,-1.87547 0.6189,0 z m 0,2.49438 0,1.87546 -0.6189,0 0,-1.87546 0.6189,0 z m 0,2.51312 0,1.87547 -0.6189,0 0,-1.87547 0.6189,0 z m 0,2.49437 0,1.87547 -0.6189,0 0,-1.87547 0.6189,0 z m 0,2.49437 0,1.87547 -0.6189,0 0,-1.87547 0.6189,0 z m 0,2.51313 0,1.87547 -0.6189,0 0,-1.87547 0.6189,0 z m 0,2.49437 0,1.87547 -0.6189,0 0,-1.87547 0.6189,0 z m 0,2.49437 0,1.87547 -0.6189,0 0,-1.87547 0.6189,0 z m 0,2.51313 0,1.87547 -0.6189,0 0,-1.87547 0.6189,0 z m 0,2.49437 0,1.87547 -0.6189,0 0,-1.87547 0.6189,0 z m 0,2.49437 0,1.87547 -0.6189,0 0,-1.87547 0.6189,0 z m 0,2.51313 0,1.87547 -0.6189,0 0,-1.87547 0.6189,0 z m 0,2.49437 0,1.87547 -0.6189,0 0,-1.87547 0.6189,0 z m 0,2.49437 0,1.87547 -0.6189,0 0,-1.87547 0.6189,0 z m 0,2.51313 0,1.87546 -0.6189,0 0,-1.87546 0.6189,0 z m 0,2.49437 0,1.87547 -0.6189,0 0,-1.87547 0.6189,0 z m 0,2.49437 0,1.87547 -0.6189,0 0,-1.87547 0.6189,0 z m 0,2.51313 0,1.87546 -0.6189,0 0,-1.87546 0.6189,0 z m 0,2.49437 0,1.87547 -0.6189,0 0,-1.87547 0.6189,0 z m 0,2.49437 0,1.87547 -0.6189,0 0,-1.87547 0.6189,0 z m 0,2.51313 0,1.87546 -0.6189,0 0,-1.87546 0.6189,0 z m 0,2.49437 0,1.87546 -0.6189,0 0,-1.87546 0.6189,0 z m 0,2.49437 0,1.87547 -0.6189,0 0,-1.87547 0.6189,0 z m 0,2.51312 0,1.87547 -0.6189,0 0,-1.87547 0.6189,0 z m 0,2.49438 0,1.87546 -0.6189,0 0,-1.87546 0.6189,0 z m 0,2.49437 0,1.87546 -0.6189,0 0,-1.87546 0.6189,0 z m 0,2.51312 0,1.87547 -0.6189,0 0,-1.87547 0.6189,0 z m 0,2.49437 0,1.87547 -0.6189,0 0,-1.87547 0.6189,0 z m 0,2.49438 0,1.87546 -0.6189,0 0,-1.87546 0.6189,0 z m 0,2.51312 0,1.87547 -0.6189,0 0,-1.87547 0.6189,0 z m 0,2.49437 0,1.87547 -0.6189,0 0,-1.87547 0.6189,0 z m 0,2.49438 0,1.87546 -0.6189,0 0,-1.87546 0.6189,0 z m 0,2.51312 0,1.87547 -0.6189,0 0,-1.87547 0.6189,0 z m 0,2.49437 0,1.87547 -0.6189,0 0,-1.87547 0.6189,0 z m 0,2.49437 0,1.87547 -0.6189,0 0,-1.87547 0.6189,0 z m 0,2.51313 0,1.87547 -0.6189,0 0,-1.87547 0.6189,0 z m 0,2.49437 0,1.87547 -0.6189,0 0,-1.87547 0.6189,0 z m 0,2.49437 0,1.87547 -0.6189,0 0,-1.87547 0.6189,0 z m 0,2.51313 0,1.87547 -0.6189,0 0,-1.87547 0.6189,0 z m 0,2.49437 0,1.87547 -0.6189,0 0,-1.87547 0.6189,0 z m 0,2.49437 0,1.87547 -0.6189,0 0,-1.87547 0.6189,0 z m 0,2.51313 0,1.87547 -0.6189,0 0,-1.87547 0.6189,0 z m 0,2.49437 0,1.87547 -0.6189,0 0,-1.87547 0.6189,0 z m 0,2.49437 0,1.87547 -0.6189,0 0,-1.87547 0.6189,0 z m 0,2.51313 0,1.87546 -0.6189,0 0,-1.87546 0.6189,0 z m 0,2.49437 0,1.87547 -0.6189,0 0,-1.87547 0.6189,0 z m 0,2.49437 0,1.87547 -0.6189,0 0,-1.87547 0.6189,0 z m 0,2.51313 0,1.87546 -0.6189,0 0,-1.87546 0.6189,0 z m 0,2.49437 0,1.87546 -0.6189,0 0,-1.87546 0.6189,0 z m 0,2.49437 0,1.87547 -0.6189,0 0,-1.87547 0.6189,0 z m 0,2.51312 0,1.87547 -0.6189,0 0,-1.87547 0.6189,0 z m 0,2.49438 0,1.87546 -0.6189,0 0,-1.87546 0.6189,0 z m 0,2.49437 0,1.87546 -0.6189,0 0,-1.87546 0.6189,0 z m 0,2.51312 0,1.87547 -0.6189,0 0,-1.87547 0.6189,0 z m 0,2.49437 0,1.87547 -0.6189,0 0,-1.87547 0.6189,0 z m 0,2.49438 0,1.87546 -0.6189,0 0,-1.87546 0.6189,0 z m 0,2.51312 0,1.87547 -0.6189,0 0,-1.87547 0.6189,0 z m 0,2.49437 0,1.87547 -0.6189,0 0,-1.87547 0.6189,0 z m 0,2.49438 0,1.87546 -0.6189,0 0,-1.87546 0.6189,0 z m 0,2.51312 0,1.87547 -0.6189,0 0,-1.87547 0.6189,0 z m 0,2.49437 0,1.87547 -0.6189,0 0,-1.87547 0.6189,0 z m 0,2.49437 0,1.87547 -0.6189,0 0,-1.87547 0.6189,0 z m 0,2.51313 0,1.87547 -0.6189,0 0,-1.87547 0.6189,0 z m 0,2.49437 0,0.71268 -0.6189,0 0,-0.71268 0.6189,0 z"
       id="path3011" />
    <path
       inkscape:connector-curvature="0"
       style="fill:#000000;fill-opacity:1;fill-rule:nonzero;stroke:#000000;stroke-width:0.01875467px;stroke-linecap:butt;stroke-linejoin:round;stroke-opacity:1;stroke-dasharray:none"
       d="m 346.82913,288.99659 0,1.87547 -0.6189,0 0,-1.87547 0.6189,0 z m 0,2.49437 0,1.87547 -0.6189,0 0,-1.87547 0.6189,0 z m 0,2.49437 0,1.87547 -0.6189,0 0,-1.87547 0.6189,0 z m 0,2.51313 0,1.87546 -0.6189,0 0,-1.87546 0.6189,0 z m 0,2.49437 0,1.87547 -0.6189,0 0,-1.87547 0.6189,0 z m 0,2.49437 0,1.87547 -0.6189,0 0,-1.87547 0.6189,0 z m 0,2.51313 0,1.87546 -0.6189,0 0,-1.87546 0.6189,0 z m 0,2.49437 0,1.87547 -0.6189,0 0,-1.87547 0.6189,0 z m 0,2.49437 0,1.87547 -0.6189,0 0,-1.87547 0.6189,0 z m 0,2.51313 0,1.87546 -0.6189,0 0,-1.87546 0.6189,0 z m 0,2.49437 0,1.87546 -0.6189,0 0,-1.87546 0.6189,0 z m 0,2.49437 0,1.87547 -0.6189,0 0,-1.87547 0.6189,0 z m 0,2.51312 0,1.87547 -0.6189,0 0,-1.87547 0.6189,0 z m 0,2.49438 0,1.87546 -0.6189,0 0,-1.87546 0.6189,0 z m 0,2.49437 0,1.87546 -0.6189,0 0,-1.87546 0.6189,0 z m 0,2.51312 0,1.87547 -0.6189,0 0,-1.87547 0.6189,0 z m 0,2.49437 0,1.87547 -0.6189,0 0,-1.87547 0.6189,0 z m 0,2.49438 0,1.87546 -0.6189,0 0,-1.87546 0.6189,0 z m 0,2.51312 0,1.87547 -0.6189,0 0,-1.87547 0.6189,0 z m 0,2.49437 0,1.87547 -0.6189,0 0,-1.87547 0.6189,0 z m 0,2.49437 0,1.87547 -0.6189,0 0,-1.87547 0.6189,0 z m 0,2.51313 0,1.87547 -0.6189,0 0,-1.87547 0.6189,0 z m 0,2.49437 0,1.87547 -0.6189,0 0,-1.87547 0.6189,0 z m 0,2.49437 0,1.87547 -0.6189,0 0,-1.87547 0.6189,0 z m 0,2.51313 0,1.87547 -0.6189,0 0,-1.87547 0.6189,0 z m 0,2.49437 0,1.87547 -0.6189,0 0,-1.87547 0.6189,0 z m 0,2.49437 0,1.87547 -0.6189,0 0,-1.87547 0.6189,0 z m 0,2.51313 0,1.87547 -0.6189,0 0,-1.87547 0.6189,0 z m 0,2.49437 0,1.87547 -0.6189,0 0,-1.87547 0.6189,0 z m 0,2.49437 0,1.87547 -0.6189,0 0,-1.87547 0.6189,0 z m 0,2.51313 0,1.87546 -0.6189,0 0,-1.87546 0.6189,0 z m 0,2.49437 0,1.87547 -0.6189,0 0,-1.87547 0.6189,0 z m 0,2.49437 0,1.87547 -0.6189,0 0,-1.87547 0.6189,0 z m 0,2.51313 0,1.87546 -0.6189,0 0,-1.87546 0.6189,0 z m 0,2.49437 0,1.87547 -0.6189,0 0,-1.87547 0.6189,0 z m 0,2.49437 0,1.87547 -0.6189,0 0,-1.87547 0.6189,0 z m 0,2.51313 0,1.87546 -0.6189,0 0,-1.87546 0.6189,0 z m 0,2.49437 0,1.87546 -0.6189,0 0,-1.87546 0.6189,0 z m 0,2.49437 0,1.87547 -0.6189,0 0,-1.87547 0.6189,0 z m 0,2.51312 0,1.87547 -0.6189,0 0,-1.87547 0.6189,0 z m 0,2.49438 0,1.87546 -0.6189,0 0,-1.87546 0.6189,0 z m 0,2.49437 0,1.87546 -0.6189,0 0,-1.87546 0.6189,0 z m 0,2.51312 0,1.87547 -0.6189,0 0,-1.87547 0.6189,0 z m 0,2.49437 0,1.87547 -0.6189,0 0,-1.87547 0.6189,0 z m 0,2.49438 0,1.87546 -0.6189,0 0,-1.87546 0.6189,0 z m 0,2.51312 0,1.87547 -0.6189,0 0,-1.87547 0.6189,0 z m 0,2.49437 0,1.87547 -0.6189,0 0,-1.87547 0.6189,0 z m 0,2.49438 0,1.87546 -0.6189,0 0,-1.87546 0.6189,0 z m 0,2.51312 0,1.87547 -0.6189,0 0,-1.87547 0.6189,0 z m 0,2.49437 0,1.87547 -0.6189,0 0,-1.87547 0.6189,0 z m 0,2.49437 0,1.87547 -0.6189,0 0,-1.87547 0.6189,0 z m 0,2.51313 0,1.87547 -0.6189,0 0,-1.87547 0.6189,0 z m 0,2.49437 0,1.87547 -0.6189,0 0,-1.87547 0.6189,0 z m 0,2.49437 0,1.87547 -0.6189,0 0,-1.87547 0.6189,0 z m 0,2.51313 0,1.87547 -0.6189,0 0,-1.87547 0.6189,0 z m 0,2.49437 0,1.87547 -0.6189,0 0,-1.87547 0.6189,0 z m 0,2.49437 0,1.87547 -0.6189,0 0,-1.87547 0.6189,0 z m 0,2.51313 0,1.87547 -0.6189,0 0,-1.87547 0.6189,0 z m 0,2.49437 0,1.87547 -0.6189,0 0,-1.87547 0.6189,0 z m 0,2.49437 0,1.87547 -0.6189,0 0,-1.87547 0.6189,0 z m 0,2.51313 0,1.87546 -0.6189,0 0,-1.87546 0.6189,0 z m 0,2.49437 0,1.87547 -0.6189,0 0,-1.87547 0.6189,0 z m 0,2.49437 0,1.87547 -0.6189,0 0,-1.87547 0.6189,0 z m 0,2.51313 0,1.87546 -0.6189,0 0,-1.87546 0.6189,0 z m 0,2.49437 0,1.87546 -0.6189,0 0,-1.87546 0.6189,0 z m 0,2.49437 0,1.87547 -0.6189,0 0,-1.87547 0.6189,0 z m 0,2.51312 0,1.87547 -0.6189,0 0,-1.87547 0.6189,0 z m 0,2.49438 0,1.87546 -0.6189,0 0,-1.87546 0.6189,0 z m 0,2.49437 0,1.87546 -0.6189,0 0,-1.87546 0.6189,0 z m 0,2.51312 0,1.87547 -0.6189,0 0,-1.87547 0.6189,0 z m 0,2.49437 0,1.87547 -0.6189,0 0,-1.87547 0.6189,0 z m 0,2.49438 0,1.87546 -0.6189,0 0,-1.87546 0.6189,0 z m 0,2.51312 0,1.87547 -0.6189,0 0,-1.87547 0.6189,0 z m 0,2.49437 0,1.87547 -0.6189,0 0,-1.87547 0.6189,0 z m 0,2.49438 0,1.87546 -0.6189,0 0,-1.87546 0.6189,0 z m 0,2.51312 0,1.87547 -0.6189,0 0,-1.87547 0.6189,0 z m 0,2.49437 0,1.87547 -0.6189,0 0,-1.87547 0.6189,0 z m 0,2.49437 0,1.87547 -0.6189,0 0,-1.87547 0.6189,0 z m 0,2.51313 0,1.87547 -0.6189,0 0,-1.87547 0.6189,0 z m 0,2.49437 0,0.71268 -0.6189,0 0,-0.71268 0.6189,0 z"
       id="path3013" />
    <text
       xml:space="preserve"
       x="-422.41769"
       y="124.4307"
       style="font-size:22.5056076px;font-style:normal;font-weight:normal;text-align:start;text-anchor:start;fill:#000000;font-family:Verdana"
       id="text3015"
       transform="matrix(0,-1,1,0,0,0)">User</text>
    <text
       xml:space="preserve"
       x="189.62325"
       y="276.4989"
       style="font-size:22.5056076px;font-style:normal;font-weight:normal;text-align:start;text-anchor:start;fill:#000000;font-family:Verdana"
       id="text3017">W</text>
    <text
       xml:space="preserve"
       x="263.01584"
       y="238.89505"
       style="font-size:22.5056076px;font-style:normal;font-weight:normal;text-align:start;text-anchor:start;fill:#000000;font-family:Verdana"
       id="text3019">Item</text>
    <text
       xml:space="preserve"
       x="251.43982"
       y="276.4989"
       style="font-size:22.5056076px;font-style:normal;font-weight:normal;text-align:start;text-anchor:start;fill:#000000;font-family:Verdana"
       id="text3021">X</text>
    <text
       xml:space="preserve"
       x="313.29312"
       y="276.50037"
       style="font-size:22.5056076px;font-style:normal;font-weight:normal;text-align:start;text-anchor:start;fill:#000000;font-family:Verdana"
       id="text3023">Y</text>
    <text
       xml:space="preserve"
       x="368.28714"
       y="275.88751"
       style="font-size:22.5056076px;font-style:normal;font-weight:normal;text-align:start;text-anchor:start;fill:#000000;font-family:Verdana"
       id="text3025">Z</text>
    <path
       inkscape:connector-curvature="0"
       style="fill:#000000;fill-opacity:1;fill-rule:nonzero;stroke:#000000;stroke-width:0.01875467px;stroke-linecap:butt;stroke-linejoin:round;stroke-opacity:1;stroke-dasharray:none"
       d="m 228.20583,288.99659 0,1.87547 -0.6189,0 0,-1.87547 0.6189,0 z m 0,2.49437 0,1.87547 -0.6189,0 0,-1.87547 0.6189,0 z m 0,2.49437 0,1.87547 -0.6189,0 0,-1.87547 0.6189,0 z m 0,2.51313 0,1.87546 -0.6189,0 0,-1.87546 0.6189,0 z m 0,2.49437 0,1.87547 -0.6189,0 0,-1.87547 0.6189,0 z m 0,2.49437 0,1.87547 -0.6189,0 0,-1.87547 0.6189,0 z m 0,2.51313 0,1.87546 -0.6189,0 0,-1.87546 0.6189,0 z m 0,2.49437 0,1.87547 -0.6189,0 0,-1.87547 0.6189,0 z m 0,2.49437 0,1.87547 -0.6189,0 0,-1.87547 0.6189,0 z m 0,2.51313 0,1.87546 -0.6189,0 0,-1.87546 0.6189,0 z m 0,2.49437 0,1.87546 -0.6189,0 0,-1.87546 0.6189,0 z m 0,2.49437 0,1.87547 -0.6189,0 0,-1.87547 0.6189,0 z m 0,2.51312 0,1.87547 -0.6189,0 0,-1.87547 0.6189,0 z m 0,2.49438 0,1.87546 -0.6189,0 0,-1.87546 0.6189,0 z m 0,2.49437 0,1.87546 -0.6189,0 0,-1.87546 0.6189,0 z m 0,2.51312 0,1.87547 -0.6189,0 0,-1.87547 0.6189,0 z m 0,2.49437 0,1.87547 -0.6189,0 0,-1.87547 0.6189,0 z m 0,2.49438 0,1.87546 -0.6189,0 0,-1.87546 0.6189,0 z m 0,2.51312 0,1.87547 -0.6189,0 0,-1.87547 0.6189,0 z m 0,2.49437 0,1.87547 -0.6189,0 0,-1.87547 0.6189,0 z m 0,2.49437 0,1.87547 -0.6189,0 0,-1.87547 0.6189,0 z m 0,2.51313 0,1.87547 -0.6189,0 0,-1.87547 0.6189,0 z m 0,2.49437 0,1.87547 -0.6189,0 0,-1.87547 0.6189,0 z m 0,2.49437 0,1.87547 -0.6189,0 0,-1.87547 0.6189,0 z m 0,2.51313 0,1.87547 -0.6189,0 0,-1.87547 0.6189,0 z m 0,2.49437 0,1.87547 -0.6189,0 0,-1.87547 0.6189,0 z m 0,2.49437 0,1.87547 -0.6189,0 0,-1.87547 0.6189,0 z m 0,2.51313 0,1.87547 -0.6189,0 0,-1.87547 0.6189,0 z m 0,2.49437 0,1.87547 -0.6189,0 0,-1.87547 0.6189,0 z m 0,2.49437 0,1.87547 -0.6189,0 0,-1.87547 0.6189,0 z m 0,2.51313 0,1.87546 -0.6189,0 0,-1.87546 0.6189,0 z m 0,2.49437 0,1.87547 -0.6189,0 0,-1.87547 0.6189,0 z m 0,2.49437 0,1.87547 -0.6189,0 0,-1.87547 0.6189,0 z m 0,2.51313 0,1.87546 -0.6189,0 0,-1.87546 0.6189,0 z m 0,2.49437 0,1.87547 -0.6189,0 0,-1.87547 0.6189,0 z m 0,2.49437 0,1.87547 -0.6189,0 0,-1.87547 0.6189,0 z m 0,2.51313 0,1.87546 -0.6189,0 0,-1.87546 0.6189,0 z m 0,2.49437 0,1.87546 -0.6189,0 0,-1.87546 0.6189,0 z m 0,2.49437 0,1.87547 -0.6189,0 0,-1.87547 0.6189,0 z m 0,2.51312 0,1.87547 -0.6189,0 0,-1.87547 0.6189,0 z m 0,2.49438 0,1.87546 -0.6189,0 0,-1.87546 0.6189,0 z m 0,2.49437 0,1.87546 -0.6189,0 0,-1.87546 0.6189,0 z m 0,2.51312 0,1.87547 -0.6189,0 0,-1.87547 0.6189,0 z m 0,2.49437 0,1.87547 -0.6189,0 0,-1.87547 0.6189,0 z m 0,2.49438 0,1.87546 -0.6189,0 0,-1.87546 0.6189,0 z m 0,2.51312 0,1.87547 -0.6189,0 0,-1.87547 0.6189,0 z m 0,2.49437 0,1.87547 -0.6189,0 0,-1.87547 0.6189,0 z m 0,2.49438 0,1.87546 -0.6189,0 0,-1.87546 0.6189,0 z m 0,2.51312 0,1.87547 -0.6189,0 0,-1.87547 0.6189,0 z m 0,2.49437 0,1.87547 -0.6189,0 0,-1.87547 0.6189,0 z m 0,2.49437 0,1.87547 -0.6189,0 0,-1.87547 0.6189,0 z m 0,2.51313 0,1.87547 -0.6189,0 0,-1.87547 0.6189,0 z m 0,2.49437 0,1.87547 -0.6189,0 0,-1.87547 0.6189,0 z m 0,2.49437 0,1.87547 -0.6189,0 0,-1.87547 0.6189,0 z m 0,2.51313 0,1.87547 -0.6189,0 0,-1.87547 0.6189,0 z m 0,2.49437 0,1.87547 -0.6189,0 0,-1.87547 0.6189,0 z m 0,2.49437 0,1.87547 -0.6189,0 0,-1.87547 0.6189,0 z m 0,2.51313 0,1.87547 -0.6189,0 0,-1.87547 0.6189,0 z m 0,2.49437 0,1.87547 -0.6189,0 0,-1.87547 0.6189,0 z m 0,2.49437 0,1.87547 -0.6189,0 0,-1.87547 0.6189,0 z m 0,2.51313 0,1.87546 -0.6189,0 0,-1.87546 0.6189,0 z m 0,2.49437 0,1.87547 -0.6189,0 0,-1.87547 0.6189,0 z m 0,2.49437 0,1.87547 -0.6189,0 0,-1.87547 0.6189,0 z m 0,2.51313 0,1.87546 -0.6189,0 0,-1.87546 0.6189,0 z m 0,2.49437 0,1.87546 -0.6189,0 0,-1.87546 0.6189,0 z m 0,2.49437 0,1.87547 -0.6189,0 0,-1.87547 0.6189,0 z m 0,2.51312 0,1.87547 -0.6189,0 0,-1.87547 0.6189,0 z m 0,2.49438 0,1.87546 -0.6189,0 0,-1.87546 0.6189,0 z m 0,2.49437 0,1.87546 -0.6189,0 0,-1.87546 0.6189,0 z m 0,2.51312 0,1.87547 -0.6189,0 0,-1.87547 0.6189,0 z m 0,2.49437 0,1.87547 -0.6189,0 0,-1.87547 0.6189,0 z m 0,2.49438 0,1.87546 -0.6189,0 0,-1.87546 0.6189,0 z m 0,2.51312 0,1.87547 -0.6189,0 0,-1.87547 0.6189,0 z m 0,2.49437 0,1.87547 -0.6189,0 0,-1.87547 0.6189,0 z m 0,2.49438 0,1.87546 -0.6189,0 0,-1.87546 0.6189,0 z m 0,2.51312 0,1.87547 -0.6189,0 0,-1.87547 0.6189,0 z m 0,2.49437 0,1.87547 -0.6189,0 0,-1.87547 0.6189,0 z m 0,2.49437 0,1.87547 -0.6189,0 0,-1.87547 0.6189,0 z m 0,2.51313 0,1.87547 -0.6189,0 0,-1.87547 0.6189,0 z m 0,2.49437 0,0.71268 -0.6189,0 0,-0.71268 0.6189,0 z"
       id="path3027" />
    <text
       xml:space="preserve"
       x="244.8116"
       y="324.15683"
       style="font-size:17.55437279px;font-style:normal;font-weight:normal;text-align:start;text-anchor:start;fill:#000000;font-family:Verdana"
       id="text3029">4.5</text>
    <text
       xml:space="preserve"
       x="186.23825"
       y="374.59766"
       style="font-size:17.55437279px;font-style:normal;font-weight:normal;text-align:start;text-anchor:start;fill:#000000;font-family:Verdana"
       id="text3031">4.0</text>
    <text
       xml:space="preserve"
       x="303.77005"
       y="373.60281"
       style="font-size:17.55437279px;font-style:normal;font-weight:normal;text-align:start;text-anchor:start;fill:#000000;font-family:Verdana"
       id="text3033">3.5</text>
    <text
       xml:space="preserve"
       x="303.77005"
       y="324.3049"
       style="font-size:17.55437279px;font-style:normal;font-weight:normal;text-align:start;text-anchor:start;fill:#000000;font-family:Verdana"
       id="text3035">2.0</text>
    <text
       xml:space="preserve"
       x="246.23833"
       y="423.73004"
       style="font-size:17.55437279px;font-style:normal;font-weight:normal;text-align:start;text-anchor:start;fill:#000000;font-family:Verdana"
       id="text3037">5.0</text>
    <text
       xml:space="preserve"
       x="360.28879"
       y="423.72998"
       style="font-size:17.55437279px;font-style:normal;font-weight:normal;text-align:start;text-anchor:start;fill:#000000;font-family:Verdana"
       id="text3039">2.0</text>
    <text
       xml:space="preserve"
       x="305.04816"
       y="472.27435"
       style="font-size:17.55437279px;font-style:normal;font-weight:normal;text-align:start;text-anchor:start;fill:#000000;font-family:Verdana"
       id="text3041">4.0</text>
    <text
       xml:space="preserve"
       x="246.23833"
       y="472.27435"
       style="font-size:17.55437279px;font-style:normal;font-weight:normal;text-align:start;text-anchor:start;fill:#000000;font-family:Verdana"
       id="text3043">3.5</text>
    <text
       xml:space="preserve"
       x="361.57993"
       y="472.27435"
       style="font-size:17.55437279px;font-style:normal;font-weight:normal;text-align:start;text-anchor:start;fill:#000000;font-family:Verdana"
       id="text3045">1.0</text>
    <path
       inkscape:connector-curvature="0"
       style="fill:#ffffff;fill-opacity:1;fill-rule:evenodd;stroke:none"
       d="m 562.35783,288.99659 0,198.33066 79.38853,0 0,-198.33066 -79.38853,0 z"
       id="path3047" />
    <path
       inkscape:connector-curvature="0"
       style="fill:none;stroke:#000000;stroke-width:1.25656307px;stroke-linecap:butt;stroke-linejoin:miter;stroke-miterlimit:4;stroke-opacity:1;stroke-dasharray:none"
       d="m 562.35783,288.99659 79.38853,0 0,198.33066 -79.38853,0 z"
       id="path3049" />
    <text
       xml:space="preserve"
       x="535.52368"
       y="319.09857"
       style="font-size:22.5056076px;font-style:normal;font-weight:normal;text-align:start;text-anchor:start;fill:#000000;font-family:Verdana"
       id="text3051">A</text>
    <text
       xml:space="preserve"
       x="535.52368"
       y="368.39658"
       style="font-size:22.5056076px;font-style:normal;font-weight:normal;text-align:start;text-anchor:start;fill:#000000;font-family:Verdana"
       id="text3053">B</text>
    <text
       xml:space="preserve"
       x="535.52368"
       y="417.69458"
       style="font-size:22.5056076px;font-style:normal;font-weight:normal;text-align:start;text-anchor:start;fill:#000000;font-family:Verdana"
       id="text3055">C</text>
    <text
       xml:space="preserve"
       x="535.52368"
       y="466.99261"
       style="font-size:22.5056076px;font-style:normal;font-weight:normal;text-align:start;text-anchor:start;fill:#000000;font-family:Verdana"
       id="text3057">D</text>
    <text
       xml:space="preserve"
       x="455.1568"
       y="406.32385"
       style="font-size:55.06371689px;font-style:normal;font-weight:normal;text-align:start;text-anchor:start;fill:#000000;font-family:Calibri"
       id="text3059">=</text>
    <path
       inkscape:connector-curvature="0"
       style="fill:#000000;fill-opacity:1;fill-rule:nonzero;stroke:#000000;stroke-width:0.01875467px;stroke-linecap:butt;stroke-linejoin:round;stroke-opacity:1;stroke-dasharray:none"
       d="m 602.36154,288.99659 0,1.87547 -0.6189,0 0,-1.87547 0.6189,0 z m 0,2.49437 0,1.87547 -0.6189,0 0,-1.87547 0.6189,0 z m 0,2.49437 0,1.87547 -0.6189,0 0,-1.87547 0.6189,0 z m 0,2.51313 0,1.87546 -0.6189,0 0,-1.87546 0.6189,0 z m 0,2.49437 0,1.87547 -0.6189,0 0,-1.87547 0.6189,0 z m 0,2.49437 0,1.87547 -0.6189,0 0,-1.87547 0.6189,0 z m 0,2.51313 0,1.87546 -0.6189,0 0,-1.87546 0.6189,0 z m 0,2.49437 0,1.87547 -0.6189,0 0,-1.87547 0.6189,0 z m 0,2.49437 0,1.87547 -0.6189,0 0,-1.87547 0.6189,0 z m 0,2.51313 0,1.87546 -0.6189,0 0,-1.87546 0.6189,0 z m 0,2.49437 0,1.87546 -0.6189,0 0,-1.87546 0.6189,0 z m 0,2.49437 0,1.87547 -0.6189,0 0,-1.87547 0.6189,0 z m 0,2.51312 0,1.87547 -0.6189,0 0,-1.87547 0.6189,0 z m 0,2.49438 0,1.87546 -0.6189,0 0,-1.87546 0.6189,0 z m 0,2.49437 0,1.87546 -0.6189,0 0,-1.87546 0.6189,0 z m 0,2.51312 0,1.87547 -0.6189,0 0,-1.87547 0.6189,0 z m 0,2.49437 0,1.87547 -0.6189,0 0,-1.87547 0.6189,0 z m 0,2.49438 0,1.87546 -0.6189,0 0,-1.87546 0.6189,0 z m 0,2.51312 0,1.87547 -0.6189,0 0,-1.87547 0.6189,0 z m 0,2.49437 0,1.87547 -0.6189,0 0,-1.87547 0.6189,0 z m 0,2.49437 0,1.87547 -0.6189,0 0,-1.87547 0.6189,0 z m 0,2.51313 0,1.87547 -0.6189,0 0,-1.87547 0.6189,0 z m 0,2.49437 0,1.87547 -0.6189,0 0,-1.87547 0.6189,0 z m 0,2.49437 0,1.87547 -0.6189,0 0,-1.87547 0.6189,0 z m 0,2.51313 0,1.87547 -0.6189,0 0,-1.87547 0.6189,0 z m 0,2.49437 0,1.87547 -0.6189,0 0,-1.87547 0.6189,0 z m 0,2.49437 0,1.87547 -0.6189,0 0,-1.87547 0.6189,0 z m 0,2.51313 0,1.87547 -0.6189,0 0,-1.87547 0.6189,0 z m 0,2.49437 0,1.87547 -0.6189,0 0,-1.87547 0.6189,0 z m 0,2.49437 0,1.87547 -0.6189,0 0,-1.87547 0.6189,0 z m 0,2.51313 0,1.87546 -0.6189,0 0,-1.87546 0.6189,0 z m 0,2.49437 0,1.87547 -0.6189,0 0,-1.87547 0.6189,0 z m 0,2.49437 0,1.87547 -0.6189,0 0,-1.87547 0.6189,0 z m 0,2.51313 0,1.87546 -0.6189,0 0,-1.87546 0.6189,0 z m 0,2.49437 0,1.87547 -0.6189,0 0,-1.87547 0.6189,0 z m 0,2.49437 0,1.87547 -0.6189,0 0,-1.87547 0.6189,0 z m 0,2.51313 0,1.87546 -0.6189,0 0,-1.87546 0.6189,0 z m 0,2.49437 0,1.87546 -0.6189,0 0,-1.87546 0.6189,0 z m 0,2.49437 0,1.87547 -0.6189,0 0,-1.87547 0.6189,0 z m 0,2.51312 0,1.87547 -0.6189,0 0,-1.87547 0.6189,0 z m 0,2.49438 0,1.87546 -0.6189,0 0,-1.87546 0.6189,0 z m 0,2.49437 0,1.87546 -0.6189,0 0,-1.87546 0.6189,0 z m 0,2.51312 0,1.87547 -0.6189,0 0,-1.87547 0.6189,0 z m 0,2.49437 0,1.87547 -0.6189,0 0,-1.87547 0.6189,0 z m 0,2.49438 0,1.87546 -0.6189,0 0,-1.87546 0.6189,0 z m 0,2.51312 0,1.87547 -0.6189,0 0,-1.87547 0.6189,0 z m 0,2.49437 0,1.87547 -0.6189,0 0,-1.87547 0.6189,0 z m 0,2.49438 0,1.87546 -0.6189,0 0,-1.87546 0.6189,0 z m 0,2.51312 0,1.87547 -0.6189,0 0,-1.87547 0.6189,0 z m 0,2.49437 0,1.87547 -0.6189,0 0,-1.87547 0.6189,0 z m 0,2.49437 0,1.87547 -0.6189,0 0,-1.87547 0.6189,0 z m 0,2.51313 0,1.87547 -0.6189,0 0,-1.87547 0.6189,0 z m 0,2.49437 0,1.87547 -0.6189,0 0,-1.87547 0.6189,0 z m 0,2.49437 0,1.87547 -0.6189,0 0,-1.87547 0.6189,0 z m 0,2.51313 0,1.87547 -0.6189,0 0,-1.87547 0.6189,0 z m 0,2.49437 0,1.87547 -0.6189,0 0,-1.87547 0.6189,0 z m 0,2.49437 0,1.87547 -0.6189,0 0,-1.87547 0.6189,0 z m 0,2.51313 0,1.87547 -0.6189,0 0,-1.87547 0.6189,0 z m 0,2.49437 0,1.87547 -0.6189,0 0,-1.87547 0.6189,0 z m 0,2.49437 0,1.87547 -0.6189,0 0,-1.87547 0.6189,0 z m 0,2.51313 0,1.87546 -0.6189,0 0,-1.87546 0.6189,0 z m 0,2.49437 0,1.87547 -0.6189,0 0,-1.87547 0.6189,0 z m 0,2.49437 0,1.87547 -0.6189,0 0,-1.87547 0.6189,0 z m 0,2.51313 0,1.87546 -0.6189,0 0,-1.87546 0.6189,0 z m 0,2.49437 0,1.87546 -0.6189,0 0,-1.87546 0.6189,0 z m 0,2.49437 0,1.87547 -0.6189,0 0,-1.87547 0.6189,0 z m 0,2.51312 0,1.87547 -0.6189,0 0,-1.87547 0.6189,0 z m 0,2.49438 0,1.87546 -0.6189,0 0,-1.87546 0.6189,0 z m 0,2.49437 0,1.87546 -0.6189,0 0,-1.87546 0.6189,0 z m 0,2.51312 0,1.87547 -0.6189,0 0,-1.87547 0.6189,0 z m 0,2.49437 0,1.87547 -0.6189,0 0,-1.87547 0.6189,0 z m 0,2.49438 0,1.87546 -0.6189,0 0,-1.87546 0.6189,0 z m 0,2.51312 0,1.87547 -0.6189,0 0,-1.87547 0.6189,0 z m 0,2.49437 0,1.87547 -0.6189,0 0,-1.87547 0.6189,0 z m 0,2.49438 0,1.87546 -0.6189,0 0,-1.87546 0.6189,0 z m 0,2.51312 0,1.87547 -0.6189,0 0,-1.87547 0.6189,0 z m 0,2.49437 0,1.87547 -0.6189,0 0,-1.87547 0.6189,0 z m 0,2.49437 0,1.87547 -0.6189,0 0,-1.87547 0.6189,0 z m 0,2.51313 0,1.87547 -0.6189,0 0,-1.87547 0.6189,0 z m 0,2.49437 0,0.71268 -0.6189,0 0,-0.71268 0.6189,0 z"
       id="path3061" />
    <path
       inkscape:connector-curvature="0"
       style="fill:#000000;fill-opacity:1;fill-rule:nonzero;stroke:#000000;stroke-width:0.01875467px;stroke-linecap:butt;stroke-linejoin:round;stroke-opacity:1;stroke-dasharray:none"
       d="m 641.82137,439.80291 -1.87546,0 0,0.63766 1.87546,0 0,-0.63766 z m -2.49437,0 -1.87546,0 0,0.63766 1.87546,0 0,-0.63766 z m -2.49437,0 -1.87547,0 0,0.63766 1.87547,0 0,-0.63766 z m -2.51312,0 -1.87547,0 0,0.63766 1.87547,0 0,-0.63766 z m -2.49438,0 -1.87546,0 0,0.63766 1.87546,0 0,-0.63766 z m -2.49437,0 -1.87546,0 0,0.63766 1.87546,0 0,-0.63766 z m -2.51312,0 -1.87547,0 0,0.63766 1.87547,0 0,-0.63766 z m -2.49437,0 -1.87547,0 0,0.63766 1.87547,0 0,-0.63766 z m -2.49438,0 -1.87546,0 0,0.63766 1.87546,0 0,-0.63766 z m -2.51312,0 -1.87547,0 0,0.63766 1.87547,0 0,-0.63766 z m -2.49437,0 -1.87547,0 0,0.63766 1.87547,0 0,-0.63766 z m -2.49437,0 -1.87547,0 0,0.63766 1.87547,0 0,-0.63766 z m -2.51313,0 -1.87547,0 0,0.63766 1.87547,0 0,-0.63766 z m -2.49437,0 -1.87547,0 0,0.63766 1.87547,0 0,-0.63766 z m -2.49437,0 -1.87547,0 0,0.63766 1.87547,0 0,-0.63766 z m -2.51313,0 -1.87547,0 0,0.63766 1.87547,0 0,-0.63766 z m -2.49437,0 -1.87547,0 0,0.63766 1.87547,0 0,-0.63766 z m -2.49437,0 -1.87547,0 0,0.63766 1.87547,0 0,-0.63766 z m -2.51313,0 -1.87547,0 0,0.63766 1.87547,0 0,-0.63766 z m -2.49437,0 -1.87547,0 0,0.63766 1.87547,0 0,-0.63766 z m -2.49437,0 -1.87547,0 0,0.63766 1.87547,0 0,-0.63766 z m -2.51313,0 -1.87546,0 0,0.63766 1.87546,0 0,-0.63766 z m -2.49437,0 -1.87547,0 0,0.63766 1.87547,0 0,-0.63766 z m -2.49437,0 -1.87547,0 0,0.63766 1.87547,0 0,-0.63766 z m -2.51313,0 -1.87546,0 0,0.63766 1.87546,0 0,-0.63766 z m -2.49437,0 -1.87547,0 0,0.63766 1.87547,0 0,-0.63766 z m -2.49437,0 -1.87547,0 0,0.63766 1.87547,0 0,-0.63766 z m -2.51313,0 -1.87546,0 0,0.63766 1.87546,0 0,-0.63766 z m -2.49437,0 -1.87546,0 0,0.63766 1.87546,0 0,-0.63766 z m -2.49437,0 -1.87547,0 0,0.63766 1.87547,0 0,-0.63766 z m -2.51312,0 -1.87547,0 0,0.63766 1.87547,0 0,-0.63766 z m -2.49438,0 -1.87546,0 0,0.63766 1.87546,0 0,-0.63766 z"
       id="path3063" />
    <path
       inkscape:connector-curvature="0"
       style="fill:#000000;fill-opacity:1;fill-rule:nonzero;stroke:#000000;stroke-width:0.01875467px;stroke-linecap:butt;stroke-linejoin:round;stroke-opacity:1;stroke-dasharray:none"
       d="m 641.82137,341.19084 -1.87546,0 0,0.61891 1.87546,0 0,-0.61891 z m -2.49437,0 -1.87546,0 0,0.61891 1.87546,0 0,-0.61891 z m -2.49437,0 -1.87547,0 0,0.61891 1.87547,0 0,-0.61891 z m -2.51312,0 -1.87547,0 0,0.61891 1.87547,0 0,-0.61891 z m -2.49438,0 -1.87546,0 0,0.61891 1.87546,0 0,-0.61891 z m -2.49437,0 -1.87546,0 0,0.61891 1.87546,0 0,-0.61891 z m -2.51312,0 -1.87547,0 0,0.61891 1.87547,0 0,-0.61891 z m -2.49437,0 -1.87547,0 0,0.61891 1.87547,0 0,-0.61891 z m -2.49438,0 -1.87546,0 0,0.61891 1.87546,0 0,-0.61891 z m -2.51312,0 -1.87547,0 0,0.61891 1.87547,0 0,-0.61891 z m -2.49437,0 -1.87547,0 0,0.61891 1.87547,0 0,-0.61891 z m -2.49437,0 -1.87547,0 0,0.61891 1.87547,0 0,-0.61891 z m -2.51313,0 -1.87547,0 0,0.61891 1.87547,0 0,-0.61891 z m -2.49437,0 -1.87547,0 0,0.61891 1.87547,0 0,-0.61891 z m -2.49437,0 -1.87547,0 0,0.61891 1.87547,0 0,-0.61891 z m -2.51313,0 -1.87547,0 0,0.61891 1.87547,0 0,-0.61891 z m -2.49437,0 -1.87547,0 0,0.61891 1.87547,0 0,-0.61891 z m -2.49437,0 -1.87547,0 0,0.61891 1.87547,0 0,-0.61891 z m -2.51313,0 -1.87547,0 0,0.61891 1.87547,0 0,-0.61891 z m -2.49437,0 -1.87547,0 0,0.61891 1.87547,0 0,-0.61891 z m -2.49437,0 -1.87547,0 0,0.61891 1.87547,0 0,-0.61891 z m -2.51313,0 -1.87546,0 0,0.61891 1.87546,0 0,-0.61891 z m -2.49437,0 -1.87547,0 0,0.61891 1.87547,0 0,-0.61891 z m -2.49437,0 -1.87547,0 0,0.61891 1.87547,0 0,-0.61891 z m -2.51313,0 -1.87546,0 0,0.61891 1.87546,0 0,-0.61891 z m -2.49437,0 -1.87547,0 0,0.61891 1.87547,0 0,-0.61891 z m -2.49437,0 -1.87547,0 0,0.61891 1.87547,0 0,-0.61891 z m -2.51313,0 -1.87546,0 0,0.61891 1.87546,0 0,-0.61891 z m -2.49437,0 -1.87546,0 0,0.61891 1.87546,0 0,-0.61891 z m -2.49437,0 -1.87547,0 0,0.61891 1.87547,0 0,-0.61891 z m -2.51312,0 -1.87547,0 0,0.61891 1.87547,0 0,-0.61891 z m -2.49438,0 -1.87546,0 0,0.61891 1.87546,0 0,-0.61891 z"
       id="path3065" />
    <path
       inkscape:connector-curvature="0"
       style="fill:#000000;fill-opacity:1;fill-rule:nonzero;stroke:#000000;stroke-width:0.01875467px;stroke-linecap:butt;stroke-linejoin:round;stroke-opacity:1;stroke-dasharray:none"
       d="m 562.35783,387.92748 1.87547,0 0,0.61891 -1.87547,0 0,-0.61891 z m 2.49437,0 1.87547,0 0,0.61891 -1.87547,0 0,-0.61891 z m 2.51313,0 1.87546,0 0,0.61891 -1.87546,0 0,-0.61891 z m 2.49437,0 1.87546,0 0,0.61891 -1.87546,0 0,-0.61891 z m 2.49437,0 1.87547,0 0,0.61891 -1.87547,0 0,-0.61891 z m 2.51312,0 1.87547,0 0,0.61891 -1.87547,0 0,-0.61891 z m 2.49438,0 1.87546,0 0,0.61891 -1.87546,0 0,-0.61891 z m 2.49437,0 1.87546,0 0,0.61891 -1.87546,0 0,-0.61891 z m 2.51312,0 1.87547,0 0,0.61891 -1.87547,0 0,-0.61891 z m 2.49437,0 1.87547,0 0,0.61891 -1.87547,0 0,-0.61891 z m 2.49438,0 1.87546,0 0,0.61891 -1.87546,0 0,-0.61891 z m 2.51312,0 1.87547,0 0,0.61891 -1.87547,0 0,-0.61891 z m 2.49437,0 1.87547,0 0,0.61891 -1.87547,0 0,-0.61891 z m 2.49438,0 1.87546,0 0,0.61891 -1.87546,0 0,-0.61891 z m 2.51312,0 1.87547,0 0,0.61891 -1.87547,0 0,-0.61891 z m 2.49437,0 1.87547,0 0,0.61891 -1.87547,0 0,-0.61891 z m 2.49437,0 1.87547,0 0,0.61891 -1.87547,0 0,-0.61891 z m 2.51313,0 1.87547,0 0,0.61891 -1.87547,0 0,-0.61891 z m 2.49437,0 1.87547,0 0,0.61891 -1.87547,0 0,-0.61891 z m 2.49437,0 1.87547,0 0,0.61891 -1.87547,0 0,-0.61891 z m 2.51313,0 1.87547,0 0,0.61891 -1.87547,0 0,-0.61891 z m 2.49437,0 1.87547,0 0,0.61891 -1.87547,0 0,-0.61891 z m 2.49437,0 1.87547,0 0,0.61891 -1.87547,0 0,-0.61891 z m 2.51313,0 1.87547,0 0,0.61891 -1.87547,0 0,-0.61891 z m 2.49437,0 1.87547,0 0,0.61891 -1.87547,0 0,-0.61891 z m 2.49437,0 1.87547,0 0,0.61891 -1.87547,0 0,-0.61891 z m 2.51313,0 1.87546,0 0,0.61891 -1.87546,0 0,-0.61891 z m 2.49437,0 1.87547,0 0,0.61891 -1.87547,0 0,-0.61891 z m 2.49437,0 1.87547,0 0,0.61891 -1.87547,0 0,-0.61891 z m 2.51313,0 1.87546,0 0,0.61891 -1.87546,0 0,-0.61891 z m 2.49437,0 1.87546,0 0,0.61891 -1.87546,0 0,-0.61891 z m 2.49437,0 1.87547,0 0,0.61891 -1.87547,0 0,-0.61891 z"
       id="path3067" />
    <path
       inkscape:connector-curvature="0"
       style="fill:#ffffff;fill-opacity:1;fill-rule:evenodd;stroke:none"
       d="m 712.54524,289.14663 0,99.09968 232.55794,0 0,-99.09968 -232.55794,0 z"
       id="path3069" />
    <path
       inkscape:connector-curvature="0"
       style="fill:none;stroke:#000000;stroke-width:1.23780835px;stroke-linecap:butt;stroke-linejoin:miter;stroke-miterlimit:4;stroke-opacity:1;stroke-dasharray:none"
       d="m 712.54524,289.14663 232.55794,0 0,99.09968 -232.55794,0 z"
       id="path3071" />
    <path
       inkscape:connector-curvature="0"
       style="fill:#000000;fill-opacity:1;fill-rule:nonzero;stroke:#000000;stroke-width:0.03750934px;stroke-linecap:butt;stroke-linejoin:round;stroke-opacity:1;stroke-dasharray:none"
       d="m 712.54524,338.3964 1.87547,0 0,0.60014 -1.87547,0 0,-0.60014 z m 2.51313,0 1.87547,0 0,0.60014 -1.87547,0 0,-0.60014 z m 2.51313,0 1.87546,0 0,0.60014 -1.87546,0 0,-0.60014 z m 2.47561,0 1.87547,0 0,0.60014 -1.87547,0 0,-0.60014 z m 2.51313,0 1.87547,0 0,0.60014 -1.87547,0 0,-0.60014 z m 2.51312,0 1.87547,0 0,0.60014 -1.87547,0 0,-0.60014 z m 2.47562,0 1.87547,0 0,0.60014 -1.87547,0 0,-0.60014 z m 2.51313,0 1.87546,0 0,0.60014 -1.87546,0 0,-0.60014 z m 2.51312,0 1.87547,0 0,0.60014 -1.87547,0 0,-0.60014 z m 2.47562,0 1.87547,0 0,0.60014 -1.87547,0 0,-0.60014 z m 2.51313,0 1.87546,0 0,0.60014 -1.87546,0 0,-0.60014 z m 2.51312,0 1.87547,0 0,0.60014 -1.87547,0 0,-0.60014 z m 2.47562,0 1.87547,0 0,0.60014 -1.87547,0 0,-0.60014 z m 2.51313,0 1.87546,0 0,0.60014 -1.87546,0 0,-0.60014 z m 2.51312,0 1.87547,0 0,0.60014 -1.87547,0 0,-0.60014 z m 2.47562,0 1.87547,0 0,0.60014 -1.87547,0 0,-0.60014 z m 2.51312,0 1.87547,0 0,0.60014 -1.87547,0 0,-0.60014 z m 2.51313,0 1.87547,0 0,0.60014 -1.87547,0 0,-0.60014 z m 2.47562,0 1.87546,0 0,0.60014 -1.87546,0 0,-0.60014 z m 2.51312,0 1.87547,0 0,0.60014 -1.87547,0 0,-0.60014 z m 2.51313,0 1.87547,0 0,0.60014 -1.87547,0 0,-0.60014 z m 2.47562,0 1.87546,0 0,0.60014 -1.87546,0 0,-0.60014 z m 2.51312,0 1.87547,0 0,0.60014 -1.87547,0 0,-0.60014 z m 2.51313,0 1.87547,0 0,0.60014 -1.87547,0 0,-0.60014 z m 2.47561,0 1.87547,0 0,0.60014 -1.87547,0 0,-0.60014 z m 2.51313,0 1.87547,0 0,0.60014 -1.87547,0 0,-0.60014 z m 2.51313,0 1.87546,0 0,0.60014 -1.87546,0 0,-0.60014 z m 2.47561,0 1.87547,0 0,0.60014 -1.87547,0 0,-0.60014 z m 2.51313,0 1.87547,0 0,0.60014 -1.87547,0 0,-0.60014 z m 2.51313,0 1.87546,0 0,0.60014 -1.87546,0 0,-0.60014 z m 2.47561,0 1.87547,0 0,0.60014 -1.87547,0 0,-0.60014 z m 2.51313,0 1.87547,0 0,0.60014 -1.87547,0 0,-0.60014 z m 2.51312,0 1.87547,0 0,0.60014 -1.87547,0 0,-0.60014 z m 2.47562,0 1.87547,0 0,0.60014 -1.87547,0 0,-0.60014 z m 2.51313,0 1.87546,0 0,0.60014 -1.87546,0 0,-0.60014 z m 2.51312,0 1.87547,0 0,0.60014 -1.87547,0 0,-0.60014 z m 2.47562,0 1.87547,0 0,0.60014 -1.87547,0 0,-0.60014 z m 2.51313,0 1.87546,0 0,0.60014 -1.87546,0 0,-0.60014 z m 2.51312,0 1.87547,0 0,0.60014 -1.87547,0 0,-0.60014 z m 2.47562,0 1.87547,0 0,0.60014 -1.87547,0 0,-0.60014 z m 2.51313,0 1.87546,0 0,0.60014 -1.87546,0 0,-0.60014 z m 2.51312,0 1.87547,0 0,0.60014 -1.87547,0 0,-0.60014 z m 2.47562,0 1.87547,0 0,0.60014 -1.87547,0 0,-0.60014 z m 2.51312,0 1.87547,0 0,0.60014 -1.87547,0 0,-0.60014 z m 2.51313,0 1.87547,0 0,0.60014 -1.87547,0 0,-0.60014 z m 2.47562,0 1.87546,0 0,0.60014 -1.87546,0 0,-0.60014 z m 2.51312,0 1.87547,0 0,0.60014 -1.87547,0 0,-0.60014 z m 2.51313,0 1.87547,0 0,0.60014 -1.87547,0 0,-0.60014 z m 2.47562,0 1.87546,0 0,0.60014 -1.87546,0 0,-0.60014 z m 2.51312,0 1.87547,0 0,0.60014 -1.87547,0 0,-0.60014 z m 2.51313,0 1.87547,0 0,0.60014 -1.87547,0 0,-0.60014 z m 2.47562,0 1.87546,0 0,0.60014 -1.87546,0 0,-0.60014 z m 2.51312,0 1.87547,0 0,0.60014 -1.87547,0 0,-0.60014 z m 2.51313,0 1.87546,0 0,0.60014 -1.87546,0 0,-0.60014 z m 2.47561,0 1.87547,0 0,0.60014 -1.87547,0 0,-0.60014 z m 2.51313,0 1.87547,0 0,0.60014 -1.87547,0 0,-0.60014 z m 2.51313,0 1.87546,0 0,0.60014 -1.87546,0 0,-0.60014 z m 2.47561,0 1.87547,0 0,0.60014 -1.87547,0 0,-0.60014 z m 2.51313,0 1.87547,0 0,0.60014 -1.87547,0 0,-0.60014 z m 2.51313,0 1.87546,0 0,0.60014 -1.87546,0 0,-0.60014 z m 2.47561,0 1.87547,0 0,0.60014 -1.87547,0 0,-0.60014 z m 2.51313,0 1.87547,0 0,0.60014 -1.87547,0 0,-0.60014 z m 2.51312,0 1.87547,0 0,0.60014 -1.87547,0 0,-0.60014 z m 2.47562,0 1.87547,0 0,0.60014 -1.87547,0 0,-0.60014 z m 2.51313,0 1.87546,0 0,0.60014 -1.87546,0 0,-0.60014 z m 2.51312,0 1.87547,0 0,0.60014 -1.87547,0 0,-0.60014 z m 2.47562,0 1.87547,0 0,0.60014 -1.87547,0 0,-0.60014 z m 2.51313,0 1.87546,0 0,0.60014 -1.87546,0 0,-0.60014 z m 2.51312,0 1.87547,0 0,0.60014 -1.87547,0 0,-0.60014 z m 2.47562,0 1.87547,0 0,0.60014 -1.87547,0 0,-0.60014 z m 2.51312,0 1.87547,0 0,0.60014 -1.87547,0 0,-0.60014 z m 2.51313,0 1.87547,0 0,0.60014 -1.87547,0 0,-0.60014 z m 2.47562,0 1.87546,0 0,0.60014 -1.87546,0 0,-0.60014 z m 2.51312,0 1.87547,0 0,0.60014 -1.87547,0 0,-0.60014 z m 2.51313,0 1.87547,0 0,0.60014 -1.87547,0 0,-0.60014 z m 2.47562,0 1.87546,0 0,0.60014 -1.87546,0 0,-0.60014 z m 2.51312,0 1.87547,0 0,0.60014 -1.87547,0 0,-0.60014 z m 2.51313,0 1.87547,0 0,0.60014 -1.87547,0 0,-0.60014 z m 2.47562,0 1.87546,0 0,0.60014 -1.87546,0 0,-0.60014 z m 2.51312,0 1.87547,0 0,0.60014 -1.87547,0 0,-0.60014 z m 2.51313,0 1.87546,0 0,0.60014 -1.87546,0 0,-0.60014 z m 2.47561,0 1.87547,0 0,0.60014 -1.87547,0 0,-0.60014 z m 2.51313,0 1.87547,0 0,0.60014 -1.87547,0 0,-0.60014 z m 2.51313,0 1.87546,0 0,0.60014 -1.87546,0 0,-0.60014 z m 2.47561,0 1.87547,0 0,0.60014 -1.87547,0 0,-0.60014 z m 2.51313,0 1.87547,0 0,0.60014 -1.87547,0 0,-0.60014 z m 2.51313,0 1.87546,0 0,0.60014 -1.87546,0 0,-0.60014 z m 2.47561,0 1.87547,0 0,0.60014 -1.87547,0 0,-0.60014 z m 2.51313,0 1.87547,0 0,0.60014 -1.87547,0 0,-0.60014 z m 2.51312,0 1.87547,0 0,0.60014 -1.87547,0 0,-0.60014 z m 2.47562,0 1.87547,0 0,0.60014 -1.87547,0 0,-0.60014 z m 2.51313,0 1.87546,0 0,0.60014 -1.87546,0 0,-0.60014 z m 2.51312,0 1.87547,0 0,0.60014 -1.87547,0 0,-0.60014 z"
       id="path3073" />
    <path
       inkscape:connector-curvature="0"
       style="fill:#000000;fill-opacity:1;fill-rule:nonzero;stroke:#000000;stroke-width:0.03750934px;stroke-linecap:butt;stroke-linejoin:round;stroke-opacity:1;stroke-dasharray:none"
       d="m 829.1618,289.14663 0,1.87546 -0.63766,0 0,-1.87546 0.63766,0 z m 0,2.51312 0,1.87547 -0.63766,0 0,-1.87547 0.63766,0 z m 0,2.51313 0,1.87547 -0.63766,0 0,-1.87547 0.63766,0 z m 0,2.47561 0,1.87547 -0.63766,0 0,-1.87547 0.63766,0 z m 0,2.51313 0,1.87547 -0.63766,0 0,-1.87547 0.63766,0 z m 0,2.51313 0,1.87546 -0.63766,0 0,-1.87546 0.63766,0 z m 0,2.47561 0,1.87547 -0.63766,0 0,-1.87547 0.63766,0 z m 0,2.51313 0,1.87547 -0.63766,0 0,-1.87547 0.63766,0 z m 0,2.51313 0,1.87546 -0.63766,0 0,-1.87546 0.63766,0 z m 0,2.47561 0,1.87547 -0.63766,0 0,-1.87547 0.63766,0 z m 0,2.51313 0,1.87547 -0.63766,0 0,-1.87547 0.63766,0 z m 0,2.51312 0,1.87547 -0.63766,0 0,-1.87547 0.63766,0 z m 0,2.47562 0,1.87547 -0.63766,0 0,-1.87547 0.63766,0 z m 0,2.51313 0,1.87546 -0.63766,0 0,-1.87546 0.63766,0 z m 0,2.51312 0,1.87547 -0.63766,0 0,-1.87547 0.63766,0 z m 0,2.47562 0,1.87547 -0.63766,0 0,-1.87547 0.63766,0 z m 0,2.51313 0,1.87546 -0.63766,0 0,-1.87546 0.63766,0 z m 0,2.51312 0,1.87547 -0.63766,0 0,-1.87547 0.63766,0 z m 0,2.47562 0,1.87547 -0.63766,0 0,-1.87547 0.63766,0 z m 0,2.51313 0,1.87546 -0.63766,0 0,-1.87546 0.63766,0 z m 0,2.51312 0,1.87547 -0.63766,0 0,-1.87547 0.63766,0 z m 0,2.47562 0,1.87547 -0.63766,0 0,-1.87547 0.63766,0 z m 0,2.51312 0,1.87547 -0.63766,0 0,-1.87547 0.63766,0 z m 0,2.51313 0,1.87547 -0.63766,0 0,-1.87547 0.63766,0 z m 0,2.47562 0,1.87546 -0.63766,0 0,-1.87546 0.63766,0 z m 0,2.51312 0,1.87547 -0.63766,0 0,-1.87547 0.63766,0 z m 0,2.51313 0,1.87547 -0.63766,0 0,-1.87547 0.63766,0 z m 0,2.47562 0,1.87546 -0.63766,0 0,-1.87546 0.63766,0 z m 0,2.51312 0,1.87547 -0.63766,0 0,-1.87547 0.63766,0 z m 0,2.51313 0,1.87547 -0.63766,0 0,-1.87547 0.63766,0 z m 0,2.47562 0,1.87546 -0.63766,0 0,-1.87546 0.63766,0 z m 0,2.51312 0,1.87547 -0.63766,0 0,-1.87547 0.63766,0 z m 0,2.51313 0,1.87546 -0.63766,0 0,-1.87546 0.63766,0 z m 0,2.47561 0,1.87547 -0.63766,0 0,-1.87547 0.63766,0 z m 0,2.51313 0,1.87547 -0.63766,0 0,-1.87547 0.63766,0 z m 0,2.51313 0,1.87546 -0.63766,0 0,-1.87546 0.63766,0 z m 0,2.47561 0,1.87547 -0.63766,0 0,-1.87547 0.63766,0 z m 0,2.51313 0,1.87547 -0.63766,0 0,-1.87547 0.63766,0 z m 0,2.51313 0,1.87546 -0.63766,0 0,-1.87546 0.63766,0 z m 0,2.47561 0,1.6129 -0.63766,0 0,-1.6129 0.63766,0 z"
       id="path3075" />
    <path
       inkscape:connector-curvature="0"
       style="fill:#000000;fill-opacity:1;fill-rule:nonzero;stroke:#000000;stroke-width:0.03750934px;stroke-linecap:butt;stroke-linejoin:round;stroke-opacity:1;stroke-dasharray:none"
       d="m 886.02596,289.14663 0,1.87546 -0.60015,0 0,-1.87546 0.60015,0 z m 0,2.51312 0,1.87547 -0.60015,0 0,-1.87547 0.60015,0 z m 0,2.51313 0,1.87547 -0.60015,0 0,-1.87547 0.60015,0 z m 0,2.47561 0,1.87547 -0.60015,0 0,-1.87547 0.60015,0 z m 0,2.51313 0,1.87547 -0.60015,0 0,-1.87547 0.60015,0 z m 0,2.51313 0,1.87546 -0.60015,0 0,-1.87546 0.60015,0 z m 0,2.47561 0,1.87547 -0.60015,0 0,-1.87547 0.60015,0 z m 0,2.51313 0,1.87547 -0.60015,0 0,-1.87547 0.60015,0 z m 0,2.51313 0,1.87546 -0.60015,0 0,-1.87546 0.60015,0 z m 0,2.47561 0,1.87547 -0.60015,0 0,-1.87547 0.60015,0 z m 0,2.51313 0,1.87547 -0.60015,0 0,-1.87547 0.60015,0 z m 0,2.51312 0,1.87547 -0.60015,0 0,-1.87547 0.60015,0 z m 0,2.47562 0,1.87547 -0.60015,0 0,-1.87547 0.60015,0 z m 0,2.51313 0,1.87546 -0.60015,0 0,-1.87546 0.60015,0 z m 0,2.51312 0,1.87547 -0.60015,0 0,-1.87547 0.60015,0 z m 0,2.47562 0,1.87547 -0.60015,0 0,-1.87547 0.60015,0 z m 0,2.51313 0,1.87546 -0.60015,0 0,-1.87546 0.60015,0 z m 0,2.51312 0,1.87547 -0.60015,0 0,-1.87547 0.60015,0 z m 0,2.47562 0,1.87547 -0.60015,0 0,-1.87547 0.60015,0 z m 0,2.51313 0,1.87546 -0.60015,0 0,-1.87546 0.60015,0 z m 0,2.51312 0,1.87547 -0.60015,0 0,-1.87547 0.60015,0 z m 0,2.47562 0,1.87547 -0.60015,0 0,-1.87547 0.60015,0 z m 0,2.51312 0,1.87547 -0.60015,0 0,-1.87547 0.60015,0 z m 0,2.51313 0,1.87547 -0.60015,0 0,-1.87547 0.60015,0 z m 0,2.47562 0,1.87546 -0.60015,0 0,-1.87546 0.60015,0 z m 0,2.51312 0,1.87547 -0.60015,0 0,-1.87547 0.60015,0 z m 0,2.51313 0,1.87547 -0.60015,0 0,-1.87547 0.60015,0 z m 0,2.47562 0,1.87546 -0.60015,0 0,-1.87546 0.60015,0 z m 0,2.51312 0,1.87547 -0.60015,0 0,-1.87547 0.60015,0 z m 0,2.51313 0,1.87547 -0.60015,0 0,-1.87547 0.60015,0 z m 0,2.47562 0,1.87546 -0.60015,0 0,-1.87546 0.60015,0 z m 0,2.51312 0,1.87547 -0.60015,0 0,-1.87547 0.60015,0 z m 0,2.51313 0,1.87546 -0.60015,0 0,-1.87546 0.60015,0 z m 0,2.47561 0,1.87547 -0.60015,0 0,-1.87547 0.60015,0 z m 0,2.51313 0,1.87547 -0.60015,0 0,-1.87547 0.60015,0 z m 0,2.51313 0,1.87546 -0.60015,0 0,-1.87546 0.60015,0 z m 0,2.47561 0,1.87547 -0.60015,0 0,-1.87547 0.60015,0 z m 0,2.51313 0,1.87547 -0.60015,0 0,-1.87547 0.60015,0 z m 0,2.51313 0,1.87546 -0.60015,0 0,-1.87546 0.60015,0 z m 0,2.47561 0,1.6129 -0.60015,0 0,-1.6129 0.60015,0 z"
       id="path3077" />
    <text
       xml:space="preserve"
       x="728.69806"
       y="276.63632"
       style="font-size:22.5056076px;font-style:normal;font-weight:normal;text-align:start;text-anchor:start;fill:#000000;font-family:Verdana"
       id="text3079">W</text>
    <text
       xml:space="preserve"
       x="583.78192"
       y="534.84467"
       style="font-size:22.5056076px;font-style:normal;font-weight:normal;text-align:start;text-anchor:start;fill:#000000;font-family:Verdana"
       id="text3081">User</text>
    <text
       xml:space="preserve"
       x="574.17957"
       y="561.85138"
       style="font-size:22.5056076px;font-style:normal;font-weight:normal;text-align:start;text-anchor:start;fill:#000000;font-family:Verdana"
       id="text3083">Matrix</text>
    <text
       xml:space="preserve"
       x="790.51465"
       y="276.63632"
       style="font-size:22.5056076px;font-style:normal;font-weight:normal;text-align:start;text-anchor:start;fill:#000000;font-family:Verdana"
       id="text3085">X</text>
    <text
       xml:space="preserve"
       x="852.36798"
       y="276.63782"
       style="font-size:22.5056076px;font-style:normal;font-weight:normal;text-align:start;text-anchor:start;fill:#000000;font-family:Verdana"
       id="text3087">Y</text>
    <text
       xml:space="preserve"
       x="907.36194"
       y="276.02493"
       style="font-size:22.5056076px;font-style:normal;font-weight:normal;text-align:start;text-anchor:start;fill:#000000;font-family:Verdana"
       id="text3089">Z</text>
    <path
       inkscape:connector-curvature="0"
       style="fill:#000000;fill-opacity:1;fill-rule:nonzero;stroke:#000000;stroke-width:0.03750934px;stroke-linecap:butt;stroke-linejoin:round;stroke-opacity:1;stroke-dasharray:none"
       d="m 767.27138,289.14663 0,1.87546 -0.63766,0 0,-1.87546 0.63766,0 z m 0,2.51312 0,1.87547 -0.63766,0 0,-1.87547 0.63766,0 z m 0,2.51313 0,1.87547 -0.63766,0 0,-1.87547 0.63766,0 z m 0,2.47561 0,1.87547 -0.63766,0 0,-1.87547 0.63766,0 z m 0,2.51313 0,1.87547 -0.63766,0 0,-1.87547 0.63766,0 z m 0,2.51313 0,1.87546 -0.63766,0 0,-1.87546 0.63766,0 z m 0,2.47561 0,1.87547 -0.63766,0 0,-1.87547 0.63766,0 z m 0,2.51313 0,1.87547 -0.63766,0 0,-1.87547 0.63766,0 z m 0,2.51313 0,1.87546 -0.63766,0 0,-1.87546 0.63766,0 z m 0,2.47561 0,1.87547 -0.63766,0 0,-1.87547 0.63766,0 z m 0,2.51313 0,1.87547 -0.63766,0 0,-1.87547 0.63766,0 z m 0,2.51312 0,1.87547 -0.63766,0 0,-1.87547 0.63766,0 z m 0,2.47562 0,1.87547 -0.63766,0 0,-1.87547 0.63766,0 z m 0,2.51313 0,1.87546 -0.63766,0 0,-1.87546 0.63766,0 z m 0,2.51312 0,1.87547 -0.63766,0 0,-1.87547 0.63766,0 z m 0,2.47562 0,1.87547 -0.63766,0 0,-1.87547 0.63766,0 z m 0,2.51313 0,1.87546 -0.63766,0 0,-1.87546 0.63766,0 z m 0,2.51312 0,1.87547 -0.63766,0 0,-1.87547 0.63766,0 z m 0,2.47562 0,1.87547 -0.63766,0 0,-1.87547 0.63766,0 z m 0,2.51313 0,1.87546 -0.63766,0 0,-1.87546 0.63766,0 z m 0,2.51312 0,1.87547 -0.63766,0 0,-1.87547 0.63766,0 z m 0,2.47562 0,1.87547 -0.63766,0 0,-1.87547 0.63766,0 z m 0,2.51312 0,1.87547 -0.63766,0 0,-1.87547 0.63766,0 z m 0,2.51313 0,1.87547 -0.63766,0 0,-1.87547 0.63766,0 z m 0,2.47562 0,1.87546 -0.63766,0 0,-1.87546 0.63766,0 z m 0,2.51312 0,1.87547 -0.63766,0 0,-1.87547 0.63766,0 z m 0,2.51313 0,1.87547 -0.63766,0 0,-1.87547 0.63766,0 z m 0,2.47562 0,1.87546 -0.63766,0 0,-1.87546 0.63766,0 z m 0,2.51312 0,1.87547 -0.63766,0 0,-1.87547 0.63766,0 z m 0,2.51313 0,1.87547 -0.63766,0 0,-1.87547 0.63766,0 z m 0,2.47562 0,1.87546 -0.63766,0 0,-1.87546 0.63766,0 z m 0,2.51312 0,1.87547 -0.63766,0 0,-1.87547 0.63766,0 z m 0,2.51313 0,1.87546 -0.63766,0 0,-1.87546 0.63766,0 z m 0,2.47561 0,1.87547 -0.63766,0 0,-1.87547 0.63766,0 z m 0,2.51313 0,1.87547 -0.63766,0 0,-1.87547 0.63766,0 z m 0,2.51313 0,1.87546 -0.63766,0 0,-1.87546 0.63766,0 z m 0,2.47561 0,1.87547 -0.63766,0 0,-1.87547 0.63766,0 z m 0,2.51313 0,1.87547 -0.63766,0 0,-1.87547 0.63766,0 z m 0,2.51313 0,1.87546 -0.63766,0 0,-1.87546 0.63766,0 z m 0,2.47561 0,1.6129 -0.63766,0 0,-1.6129 0.63766,0 z"
       id="path3091" />
    <text
       xml:space="preserve"
       x="607.18304"
       y="323.40329"
       style="font-size:17.55437279px;font-style:italic;font-weight:normal;text-align:start;text-anchor:start;fill:#000000;font-family:Verdana"
       id="text3093">0.8</text>
    <text
       xml:space="preserve"
       x="570.98956"
       y="323.40329"
       style="font-size:17.55437279px;font-style:italic;font-weight:normal;text-align:start;text-anchor:start;fill:#000000;font-family:Verdana"
       id="text3095">1.2</text>
    <text
       xml:space="preserve"
       x="607.18304"
       y="373.14935"
       style="font-size:17.55437279px;font-style:italic;font-weight:normal;text-align:start;text-anchor:start;fill:#000000;font-family:Verdana"
       id="text3097">0.9</text>
    <text
       xml:space="preserve"
       x="570.98956"
       y="373.14935"
       style="font-size:17.55437279px;font-style:italic;font-weight:normal;text-align:start;text-anchor:start;fill:#000000;font-family:Verdana"
       id="text3099">1.4</text>
    <text
       xml:space="preserve"
       x="607.18304"
       y="423.71173"
       style="font-size:17.55437279px;font-style:italic;font-weight:normal;text-align:start;text-anchor:start;fill:#000000;font-family:Verdana"
       id="text3101">1.0</text>
    <text
       xml:space="preserve"
       x="570.98956"
       y="423.71173"
       style="font-size:17.55437279px;font-style:italic;font-weight:normal;text-align:start;text-anchor:start;fill:#000000;font-family:Verdana"
       id="text3103">1.5</text>
    <text
       xml:space="preserve"
       x="607.18304"
       y="468.67404"
       style="font-size:17.55437279px;font-style:italic;font-weight:normal;text-align:start;text-anchor:start;fill:#000000;font-family:Verdana"
       id="text3105">0.8</text>
    <text
       xml:space="preserve"
       x="570.98956"
       y="468.67404"
       style="font-size:17.55437279px;font-style:italic;font-weight:normal;text-align:start;text-anchor:start;fill:#000000;font-family:Verdana"
       id="text3107">1.2</text>
    <text
       xml:space="preserve"
       x="732.54108"
       y="371.93686"
       style="font-size:17.55437279px;font-style:italic;font-weight:normal;text-align:start;text-anchor:start;fill:#000000;font-family:Verdana"
       id="text3109">1.7</text>
    <text
       xml:space="preserve"
       x="786.40076"
       y="323.54071"
       style="font-size:17.55437279px;font-style:italic;font-weight:normal;text-align:start;text-anchor:start;fill:#000000;font-family:Verdana"
       id="text3111">1.2</text>
    <text
       xml:space="preserve"
       x="786.40076"
       y="371.93686"
       style="font-size:17.55437279px;font-style:italic;font-weight:normal;text-align:start;text-anchor:start;fill:#000000;font-family:Verdana"
       id="text3113">0.6</text>
    <text
       xml:space="preserve"
       x="847.59491"
       y="371.93686"
       style="font-size:17.55437279px;font-style:italic;font-weight:normal;text-align:start;text-anchor:start;fill:#000000;font-family:Verdana"
       id="text3115">1.1</text>
    <text
       xml:space="preserve"
       x="905.56744"
       y="323.54071"
       style="font-size:17.55437279px;font-style:italic;font-weight:normal;text-align:start;text-anchor:start;fill:#000000;font-family:Verdana"
       id="text3117">0.8</text>
    <text
       xml:space="preserve"
       x="905.56744"
       y="371.93686"
       style="font-size:17.55437279px;font-style:italic;font-weight:normal;text-align:start;text-anchor:start;fill:#000000;font-family:Verdana"
       id="text3119">0.4</text>
    <text
       xml:space="preserve"
       x="804.1427"
       y="534.84467"
       style="font-size:22.5056076px;font-style:normal;font-weight:normal;text-align:start;text-anchor:start;fill:#000000;font-family:Verdana"
       id="text3121">Item</text>
    <text
       xml:space="preserve"
       x="795.7406"
       y="561.85138"
       style="font-size:22.5056076px;font-style:normal;font-weight:normal;text-align:start;text-anchor:start;fill:#000000;font-family:Verdana"
       id="text3123">Matrix</text>
    <text
       xml:space="preserve"
       x="666.15533"
       y="406.32385"
       style="font-size:55.06371689px;font-style:normal;font-weight:normal;text-align:start;text-anchor:start;fill:#000000;font-family:Calibri"
       id="text3125">X</text>
    <text
       xml:space="preserve"
       x="842.38873"
       y="323.54071"
       style="font-size:17.55437279px;font-style:italic;font-weight:normal;text-align:start;text-anchor:start;fill:#000000;font-family:Verdana"
       id="text3127">1.0</text>
    <text
       xml:space="preserve"
       x="732.54108"
       y="322.72449"
       style="font-size:17.55437279px;font-style:italic;font-weight:normal;text-align:start;text-anchor:start;fill:#000000;font-family:Verdana"
       id="text3129">1.5</text>
  </g>
</svg>
